<svg width="450" height="446" viewBox="0 0 450 446" fill="none" xmlns="http://www.w3.org/2000/svg">
<path d="M247.442 76.83C247.442 99.9853 226.041 118.723 226.041 118.723C226.041 118.723 204.641 99.9853 204.641 76.83C204.641 53.6747 226.041 35 226.041 35C226.041 35 247.442 53.7374 247.442 76.83Z" fill="#FFD45C"/>
<path d="M247.442 369.233C247.442 392.325 226.041 411.125 226.041 411.125C226.041 411.125 204.641 392.325 204.641 369.233C204.641 346.14 226.041 327.403 226.041 327.403C226.041 327.403 247.442 346.14 247.442 369.233Z" fill="#FFD45C"/>
<path d="M76.8613 201.909C99.9853 201.909 118.723 223.31 118.723 223.31C118.723 223.31 99.9853 244.679 76.8613 244.679C53.7373 244.679 35 223.31 35 223.31C35 223.31 53.7373 201.909 76.8613 201.909Z" fill="#FFD45C"/>
<path d="M372.211 201.631C395.335 201.631 414.073 223.031 414.073 223.031C414.073 223.031 395.335 244.401 372.211 244.401C349.087 244.401 330.35 223.031 330.35 223.031C330.35 223.031 349.119 201.631 372.211 201.631Z" fill="#FFD45C"/>
<path d="M107.539 311.266C123.863 294.941 152.251 296.79 152.251 296.79C152.251 296.79 154.1 325.178 137.775 341.503C121.419 357.89 93.0313 355.979 93.0313 355.979C93.0313 355.979 91.1826 327.622 107.507 311.235L107.539 311.266Z" fill="#FFD45C"/>
<path d="M314.276 104.529C330.632 88.204 359.02 90.0527 359.02 90.0527C359.02 90.0527 360.9 118.409 344.544 134.797C328.188 151.121 299.8 149.273 299.8 149.273C299.8 149.273 297.92 120.885 314.276 104.56V104.529Z" fill="#FFD45C"/>
<path d="M314.276 341.503C297.92 325.178 299.8 296.79 299.8 296.79C299.8 296.79 328.156 294.91 344.544 311.266C360.9 327.653 359.02 356.01 359.02 356.01C359.02 356.01 330.663 357.921 314.276 341.534V341.503Z" fill="#FFD45C"/>
<path d="M107.539 134.797C91.2139 118.409 93.0626 90.0527 93.0626 90.0527C93.0626 90.0527 121.419 88.204 137.807 104.529C154.131 120.853 152.283 149.241 152.283 149.241C152.283 149.241 123.895 151.09 107.57 134.765L107.539 134.797Z" fill="#FFD45C"/>
<path d="M354.539 294.785C337.431 287.735 330.162 266.177 330.162 266.177C330.162 266.177 350.56 256.088 367.668 263.138C384.745 270.251 392.045 291.777 392.045 291.777C392.045 291.777 371.647 301.835 354.539 294.785Z" fill="#FFD45C"/>
<path d="M84.4144 182.893C67.3064 175.781 60.0371 154.255 60.0371 154.255C60.0371 154.255 80.4351 144.197 97.5431 151.278C114.62 158.328 121.92 179.917 121.92 179.917C121.92 179.917 101.522 189.975 84.4144 182.893Z" fill="#FFD45C"/>
<path d="M185.903 81.436C192.953 98.5127 182.926 118.911 182.926 118.911C182.926 118.911 161.369 111.61 154.288 94.5333C147.238 77.4253 157.264 57.0273 157.264 57.0273C157.264 57.0273 178.853 64.328 185.903 81.436Z" fill="#FFD45C"/>
<path d="M297.763 351.561C304.876 368.637 294.787 389.035 294.787 389.035C294.787 389.035 273.261 381.735 266.179 364.658C259.098 347.55 269.187 327.152 269.187 327.152C269.187 327.152 290.713 334.453 297.763 351.561Z" fill="#FFD45C"/>
<path d="M84.4145 263.138C101.491 256.088 121.889 266.177 121.889 266.177C121.889 266.177 114.589 287.703 97.5119 294.785C80.4039 301.835 60.0059 291.777 60.0059 291.777C60.0059 291.777 67.2752 270.251 84.4145 263.138Z" fill="#FFD45C"/>
<path d="M354.539 151.278C371.647 144.197 392.045 154.255 392.045 154.255C392.045 154.255 384.745 175.781 367.668 182.893C350.56 189.943 330.162 179.917 330.162 179.917C330.162 179.917 337.431 158.328 354.539 151.278Z" fill="#FFD45C"/>
<path d="M153.526 349.318C160.607 332.21 182.164 324.909 182.164 324.909C182.164 324.909 192.222 345.307 185.141 362.415C178.091 379.492 156.502 386.793 156.502 386.793C156.502 386.793 146.444 366.395 153.526 349.318Z" fill="#FFD45C"/>
<path d="M266.148 81.436C273.229 64.328 294.755 57.0273 294.755 57.0273C294.755 57.0273 304.844 77.4253 297.732 94.5333C290.682 111.61 269.156 118.911 269.156 118.911C269.156 118.911 259.066 98.5127 266.148 81.436Z" fill="#FFD45C"/>
<path d="M345.202 223.031C345.202 288.863 291.842 342.223 226.01 342.223C160.179 342.223 106.818 288.863 106.818 223.031C106.818 157.2 160.179 103.839 226.01 103.839C291.842 103.839 345.202 157.2 345.202 223.031Z" fill="#FF9D00"/>
</svg>
