<svg width="450" height="446" viewBox="0 0 450 446" fill="none" xmlns="http://www.w3.org/2000/svg">
<path d="M381.842 77.8591L393.772 100.439L419.133 103.392C422.982 103.829 423.91 106.453 421.235 109.242L403.463 127.585L408.486 152.652C409.25 156.452 407.039 158.147 403.599 156.425L380.668 145.189L358.419 157.71C355.061 159.623 352.768 158.038 353.314 154.21L356.917 128.924L338.135 111.62C335.296 108.996 336.088 106.317 339.882 105.66L365.025 101.287L375.672 78.0504C377.283 74.5513 380.04 74.4693 381.869 77.8864L381.842 77.8591Z" fill="#FFD45C"/>
<path d="M41.4719 314.568L50.2351 331.188L68.8806 333.375C71.7198 333.703 72.4023 335.644 70.4094 337.667L57.3329 351.171L61.0184 369.596C61.5917 372.385 59.9537 373.642 57.4148 372.385L40.5438 364.102L24.1914 373.314C21.7071 374.708 20.0418 373.56 20.424 370.744L23.0721 352.128L9.25855 339.389C7.15649 337.448 7.75708 335.48 10.5416 334.988L29.0234 331.762L36.8583 314.677C38.0322 312.107 40.0797 312.025 41.4173 314.54L41.4719 314.568Z" fill="#FFD45C"/>
<path d="M422.573 217.085L428.524 228.348L441.164 229.824C443.074 230.043 443.539 231.355 442.201 232.722L433.356 241.879L435.867 254.372C436.25 256.258 435.158 257.106 433.438 256.258L421.999 250.654L410.916 256.887C409.223 257.844 408.104 257.051 408.377 255.138L410.179 242.535L400.815 233.897C399.395 232.585 399.805 231.245 401.688 230.917L414.219 228.73L419.542 217.14C420.334 215.39 421.726 215.363 422.627 217.058L422.573 217.085Z" fill="#FFD45C"/>
<path d="M307.833 250.354C266.528 291.714 199.59 291.714 158.286 250.354C116.982 208.993 116.982 141.964 158.286 100.603C174.447 84.3926 194.567 74.524 215.56 71.0249C182.501 70.3688 149.25 82.6704 124.053 107.929C74.8861 157.163 74.8861 236.986 124.053 286.219C173.219 335.453 252.933 335.453 302.1 286.219C329.809 258.473 341.902 221.021 338.381 184.8C336.279 208.72 326.096 232.038 307.833 250.326V250.354Z" fill="#FF9D00"/>
</svg>
