<svg width="450" height="446" viewBox="0 0 450 446" fill="none" xmlns="http://www.w3.org/2000/svg">
<path d="M249.494 83.9876C249.494 103.355 231.594 119.028 231.594 119.028C231.594 119.028 213.694 103.355 213.694 83.9876C213.694 64.62 231.594 49 231.594 49C231.594 49 249.494 64.6724 249.494 83.9876Z" fill="#FFD45C"/>
<path d="M249.494 328.56C249.494 347.876 231.594 363.6 231.594 363.6C231.594 363.6 213.694 347.876 213.694 328.56C213.694 309.245 231.594 293.573 231.594 293.573C231.594 293.573 249.494 309.245 249.494 328.56Z" fill="#FFD45C"/>
<path d="M106.817 188.607C126.158 188.607 141.83 206.507 141.83 206.507C141.83 206.507 126.158 224.381 106.817 224.381C87.4751 224.381 71.8027 206.507 71.8027 206.507C71.8027 206.507 87.4751 188.607 106.817 188.607Z" fill="#FFD45C"/>
<path d="M353.854 188.374C373.196 188.374 388.868 206.274 388.868 206.274C388.868 206.274 373.196 224.148 353.854 224.148C334.513 224.148 318.841 206.274 318.841 206.274C318.841 206.274 334.539 188.374 353.854 188.374Z" fill="#FFD45C"/>
<path d="M132.476 280.076C146.13 266.421 169.875 267.967 169.875 267.967C169.875 267.967 171.421 291.712 157.767 305.366C144.086 319.073 120.342 317.474 120.342 317.474C120.342 317.474 118.795 293.756 132.45 280.049L132.476 280.076Z" fill="#FFD45C"/>
<path d="M305.396 107.156C319.076 93.5012 342.821 95.0475 342.821 95.0475C342.821 95.0475 344.393 118.766 330.713 132.472C317.032 146.127 293.288 144.581 293.288 144.581C293.288 144.581 291.715 120.836 305.396 107.182V107.156Z" fill="#FFD45C"/>
<path d="M305.396 305.366C291.715 291.712 293.288 267.967 293.288 267.967C293.288 267.967 317.006 266.395 330.713 280.076C344.393 293.782 342.821 317.5 342.821 317.5C342.821 317.5 319.103 319.099 305.396 305.392V305.366Z" fill="#FFD45C"/>
<path d="M132.476 132.472C118.821 118.766 120.368 95.0475 120.368 95.0475C120.368 95.0475 144.086 93.5012 157.793 107.156C171.447 120.81 169.901 144.554 169.901 144.554C169.901 144.554 146.156 146.101 132.502 132.446L132.476 132.472Z" fill="#FFD45C"/>
<path d="M339.073 266.29C324.764 260.393 318.683 242.362 318.683 242.362C318.683 242.362 335.745 233.923 350.054 239.82C364.338 245.769 370.444 263.774 370.444 263.774C370.444 263.774 353.383 272.187 339.073 266.29Z" fill="#FFD45C"/>
<path d="M113.134 172.702C98.8249 166.752 92.7446 148.748 92.7446 148.748C92.7446 148.748 109.806 140.335 124.116 146.258C138.399 152.155 144.505 170.212 144.505 170.212C144.505 170.212 127.444 178.625 113.134 172.702Z" fill="#FFD45C"/>
<path d="M198.022 87.84C203.919 102.123 195.532 119.185 195.532 119.185C195.532 119.185 177.501 113.078 171.578 98.795C165.681 84.4854 174.068 67.4241 174.068 67.4241C174.068 67.4241 192.125 73.5305 198.022 87.84Z" fill="#FFD45C"/>
<path d="M291.584 313.779C297.534 328.062 289.095 345.124 289.095 345.124C289.095 345.124 271.09 339.017 265.167 324.734C259.244 310.424 267.683 293.363 267.683 293.363C267.683 293.363 285.688 299.469 291.584 313.779Z" fill="#FFD45C"/>
<path d="M113.134 239.82C127.418 233.923 144.479 242.362 144.479 242.362C144.479 242.362 138.373 260.367 124.089 266.29C109.78 272.187 92.7183 263.774 92.7183 263.774C92.7183 263.774 98.7985 245.769 113.134 239.82Z" fill="#FFD45C"/>
<path d="M339.073 146.258C353.383 140.335 370.444 148.748 370.444 148.748C370.444 148.748 364.338 166.752 350.054 172.702C335.745 178.598 318.683 170.212 318.683 170.212C318.683 170.212 324.764 152.155 339.073 146.258Z" fill="#FFD45C"/>
<path d="M170.941 311.903C176.864 297.594 194.895 291.487 194.895 291.487C194.895 291.487 203.307 308.548 197.384 322.858C191.488 337.141 173.43 343.248 173.43 343.248C173.43 343.248 165.018 326.186 170.941 311.903Z" fill="#FFD45C"/>
<path d="M265.14 87.84C271.063 73.5305 289.068 67.4241 289.068 67.4241C289.068 67.4241 297.507 84.4854 291.558 98.795C285.661 113.078 267.656 119.185 267.656 119.185C267.656 119.185 259.217 102.123 265.14 87.84Z" fill="#FFD45C"/>
<path d="M331.263 206.274C331.263 261.337 286.631 305.969 231.568 305.969C176.505 305.969 131.873 261.337 131.873 206.274C131.873 151.211 176.505 106.579 231.568 106.579C286.631 106.579 331.263 151.211 331.263 206.274Z" fill="#FF9D00"/>
<path d="M364.235 270.51C363.108 270.51 362.007 270.562 360.88 270.641C354.853 253.527 338.551 241.262 319.419 241.262C313.706 241.262 308.229 242.362 303.223 244.328C297.274 227.922 281.575 216.233 263.151 216.233C244.727 216.233 229.841 227.345 223.577 243.07C221.48 242.703 219.305 242.493 217.104 242.493C197.736 242.493 181.828 257.17 179.836 276.013C177.163 275.489 174.332 275.201 171.476 275.201C148.124 275.201 129.202 294.097 129.202 317.5C129.202 340.904 148.124 359.748 171.476 359.748H172.55C176.691 376.809 192.075 389.52 210.447 389.52C224.652 389.52 237.1 381.893 243.888 370.519C253.166 386.401 270.358 397.068 290.067 397.068C311.898 397.068 330.636 384.016 338.971 365.278C346.414 369.576 355.036 372.013 364.235 372.013C392.278 372.013 415 349.317 415 321.274C415 293.232 392.278 270.536 364.235 270.536V270.51Z" fill="#E9F2F5"/>
<path d="M234.483 258.035C229.346 257.746 224.445 258.48 219.833 260C213.805 229.442 187.676 205.697 155.151 203.994C123.623 202.369 95.9215 221.973 85.9101 250.277H85.8577C59.2042 248.914 36.4557 269.383 35.0666 296.062C33.6776 322.768 54.1722 345.491 80.8519 346.88C94.5849 347.587 107.296 342.477 116.573 333.697C125.851 339.07 136.491 342.424 147.944 343.001C168.36 344.102 187.204 336.239 200.648 322.847C207.594 331.705 218.155 337.707 230.316 338.31C252.514 339.463 271.41 322.428 272.563 300.23C273.716 278.031 256.655 259.135 234.483 257.982V258.035Z" fill="white"/>
</svg>
