<svg width="450" height="446" viewBox="0 0 450 446" fill="none" xmlns="http://www.w3.org/2000/svg">
<path d="M235.481 234.316C229.804 233.997 224.387 234.808 219.289 236.488C212.626 202.713 183.747 176.469 147.799 174.586C112.952 172.79 82.3343 194.458 71.269 225.742H71.2111C41.752 224.235 16.6089 246.858 15.0736 276.346C13.5384 305.863 36.1904 330.978 65.6784 332.513C80.857 333.295 94.9058 327.646 105.16 317.943C115.414 323.881 127.175 327.588 139.833 328.226C162.398 329.442 183.225 320.752 198.085 305.95C205.761 315.741 217.435 322.374 230.875 323.041C255.41 324.315 276.295 305.487 277.57 280.952C278.844 256.417 259.987 235.532 235.481 234.258V234.316Z" fill="#0F5D98"/>
<path d="M377.277 63.341L388.306 84.2157L411.751 86.945C415.31 87.3494 416.168 89.7755 413.695 92.3532L397.265 109.311L401.909 132.485C402.616 135.998 400.571 137.565 397.391 135.973L376.192 125.586L355.623 137.16C352.519 138.929 350.399 137.464 350.904 133.926L354.235 110.549L336.872 94.5519C334.247 92.1258 334.979 89.6491 338.487 89.0426L361.731 84.9991L371.573 63.5179C373.062 60.2831 375.611 60.2073 377.302 63.3663L377.277 63.341Z" fill="#FFD45C"/>
<path d="M62.6166 282.171L70.7179 297.536L87.9551 299.558C90.5798 299.861 91.2107 301.655 89.3684 303.525L77.2796 316.01L80.6867 333.043C81.2167 335.621 79.7024 336.783 77.3553 335.621L61.7585 327.963L46.6413 336.48C44.3447 337.769 42.8052 336.707 43.1585 334.104L45.6065 316.894L32.8363 305.117C30.8931 303.323 31.4483 301.504 34.0225 301.049L51.1083 298.067L58.3515 282.272C59.4367 279.896 61.3295 279.82 62.5661 282.145L62.6166 282.171Z" fill="#FFD45C"/>
<path d="M414.932 192.051L420.434 202.463L432.119 203.828C433.886 204.03 434.315 205.243 433.078 206.506L424.901 214.973L427.223 226.522C427.576 228.266 426.567 229.049 424.977 228.266L414.402 223.085L404.156 228.847C402.591 229.731 401.557 228.998 401.809 227.229L403.475 215.579L394.818 207.593C393.506 206.38 393.884 205.142 395.626 204.838L407.21 202.817L412.131 192.101C412.863 190.484 414.15 190.459 414.983 192.026L414.932 192.051Z" fill="#FFD45C"/>
<path d="M308.859 222.807C270.675 261.043 208.792 261.043 170.608 222.807C132.423 184.57 132.423 122.604 170.608 84.3673C185.548 69.381 204.148 60.2578 223.556 57.023C192.993 56.4165 162.254 67.7889 138.96 91.1401C93.5072 136.655 93.5072 210.449 138.96 255.964C184.413 301.478 258.106 301.478 303.559 255.964C329.175 230.313 340.355 195.69 337.1 162.205C335.156 184.318 325.743 205.875 308.859 222.782V222.807Z" fill="#FF9D00"/>
<path d="M378.891 248.104C377.646 248.104 376.429 248.162 375.184 248.249C368.521 229.333 350.504 215.777 329.358 215.777C323.044 215.777 316.99 216.994 311.457 219.166C304.881 201.033 287.53 188.114 267.167 188.114C246.803 188.114 230.35 200.396 223.427 217.776C221.11 217.37 218.706 217.139 216.272 217.139C194.866 217.139 177.283 233.36 175.082 254.187C172.127 253.608 168.999 253.289 165.841 253.289C140.032 253.289 119.118 274.174 119.118 300.041C119.118 325.908 140.032 346.735 165.841 346.735H167.029C171.606 365.593 188.609 379.642 208.915 379.642C224.615 379.642 238.374 371.212 245.876 358.641C256.131 376.195 275.133 387.984 296.916 387.984C321.045 387.984 341.756 373.559 350.967 352.847C359.194 357.598 368.724 360.292 378.891 360.292C409.886 360.292 435 335.207 435 304.212C435 273.218 409.886 248.133 378.891 248.133V248.104Z" fill="#008CDE"/>
</svg>
