<svg width="450" height="446" viewBox="0 0 450 446" fill="none" xmlns="http://www.w3.org/2000/svg">
<path d="M239.442 76.83C239.442 99.9853 218.041 118.723 218.041 118.723C218.041 118.723 196.64 99.9853 196.64 76.83C196.64 53.6747 218.041 35 218.041 35C218.041 35 239.442 53.7374 239.442 76.83Z" fill="#FFD45C"/>
<path d="M239.442 369.233C239.442 392.325 218.041 411.125 218.041 411.125C218.041 411.125 196.64 392.325 196.64 369.233C196.64 346.14 218.041 327.403 218.041 327.403C218.041 327.403 239.442 346.14 239.442 369.233Z" fill="#FFD45C"/>
<path d="M68.8613 201.909C91.9853 201.909 110.723 223.31 110.723 223.31C110.723 223.31 91.9853 244.679 68.8613 244.679C45.7373 244.679 27 223.31 27 223.31C27 223.31 45.7373 201.909 68.8613 201.909Z" fill="#FFD45C"/>
<path d="M364.211 201.631C387.335 201.631 406.073 223.031 406.073 223.031C406.073 223.031 387.335 244.401 364.211 244.401C341.087 244.401 322.35 223.031 322.35 223.031C322.35 223.031 341.119 201.631 364.211 201.631Z" fill="#FFD45C"/>
<path d="M99.5384 311.266C115.863 294.941 144.251 296.79 144.251 296.79C144.251 296.79 146.1 325.178 129.775 341.503C113.419 357.89 85.0311 355.979 85.0311 355.979C85.0311 355.979 83.1824 327.622 99.507 311.235L99.5384 311.266Z" fill="#FFD45C"/>
<path d="M306.276 104.529C322.632 88.2041 351.02 90.0528 351.02 90.0528C351.02 90.0528 352.9 118.409 336.544 134.797C320.188 151.121 291.8 149.273 291.8 149.273C291.8 149.273 289.92 120.885 306.276 104.56V104.529Z" fill="#FFD45C"/>
<path d="M306.276 341.503C289.92 325.178 291.8 296.79 291.8 296.79C291.8 296.79 320.156 294.91 336.544 311.266C352.9 327.653 351.02 356.01 351.02 356.01C351.02 356.01 322.663 357.921 306.276 341.534V341.503Z" fill="#FFD45C"/>
<path d="M99.5386 134.797C83.2139 118.409 85.0626 90.0528 85.0626 90.0528C85.0626 90.0528 113.419 88.2041 129.807 104.529C146.131 120.853 144.283 149.241 144.283 149.241C144.283 149.241 115.895 151.09 99.5699 134.765L99.5386 134.797Z" fill="#FFD45C"/>
<path d="M346.539 294.785C329.431 287.735 322.162 266.177 322.162 266.177C322.162 266.177 342.56 256.088 359.668 263.138C376.745 270.251 384.045 291.777 384.045 291.777C384.045 291.777 363.647 301.835 346.539 294.785Z" fill="#FFD45C"/>
<path d="M76.4144 182.893C59.3064 175.781 52.0371 154.255 52.0371 154.255C52.0371 154.255 72.4351 144.197 89.5431 151.278C106.62 158.328 113.92 179.917 113.92 179.917C113.92 179.917 93.5224 189.975 76.4144 182.893Z" fill="#FFD45C"/>
<path d="M177.903 81.436C184.953 98.5127 174.926 118.911 174.926 118.911C174.926 118.911 153.369 111.61 146.288 94.5333C139.238 77.4253 149.264 57.0273 149.264 57.0273C149.264 57.0273 170.853 64.328 177.903 81.436Z" fill="#FFD45C"/>
<path d="M289.763 351.561C296.876 368.637 286.786 389.035 286.786 389.035C286.786 389.035 265.26 381.735 258.179 364.658C251.098 347.55 261.187 327.152 261.187 327.152C261.187 327.152 282.713 334.453 289.763 351.561Z" fill="#FFD45C"/>
<path d="M76.4145 263.138C93.4912 256.088 113.889 266.177 113.889 266.177C113.889 266.177 106.589 287.703 89.5119 294.785C72.4039 301.835 52.0059 291.777 52.0059 291.777C52.0059 291.777 59.2752 270.251 76.4145 263.138Z" fill="#FFD45C"/>
<path d="M346.539 151.278C363.647 144.197 384.045 154.255 384.045 154.255C384.045 154.255 376.745 175.781 359.668 182.893C342.56 189.943 322.162 179.917 322.162 179.917C322.162 179.917 329.431 158.328 346.539 151.278Z" fill="#FFD45C"/>
<path d="M145.526 349.318C152.607 332.21 174.164 324.909 174.164 324.909C174.164 324.909 184.222 345.307 177.141 362.415C170.091 379.492 148.502 386.793 148.502 386.793C148.502 386.793 138.444 366.395 145.526 349.318Z" fill="#FFD45C"/>
<path d="M258.148 81.436C265.229 64.328 286.755 57.0273 286.755 57.0273C286.755 57.0273 296.844 77.4253 289.732 94.5333C282.682 111.61 261.156 118.911 261.156 118.911C261.156 118.911 251.066 98.5127 258.148 81.436Z" fill="#FFD45C"/>
<path d="M337.202 223.031C337.202 288.863 283.841 342.223 218.01 342.223C152.179 342.223 98.8179 288.863 98.8179 223.031C98.8179 157.2 152.179 103.839 218.01 103.839C283.841 103.839 337.202 157.2 337.202 223.031Z" fill="#FF9D00"/>
<path d="M392.28 254.702C388.932 242.978 381.872 232.772 372.38 225.523C374.759 219.085 376.25 212.176 376.538 204.954C378.107 168.107 349.551 136.913 312.707 135.316C284.544 134.113 259.728 150.573 248.876 174.832C246.941 174.597 245.006 174.414 243.019 174.335C219.746 173.341 198.695 184.175 185.699 201.499C182.038 200.086 178.09 199.144 173.932 198.987C153.927 198.097 136.956 213.642 136.12 233.714C135.989 236.985 136.329 240.23 137.035 243.318C129.739 244.522 123.463 248.866 119.698 255.016C113.631 246.825 104.087 241.355 93.1299 240.884C77.9633 240.23 64.6532 249.363 59.2664 262.736C58.5865 262.631 57.9066 262.553 57.2268 262.553C43.3675 261.925 31.6526 272.707 31.0512 286.55C30.4759 300.446 41.1971 312.17 55.0825 312.746C62.2213 313.06 68.7848 310.365 73.544 305.759C78.3817 308.69 83.9776 310.495 90.0182 310.783C95.4834 322.9 107.355 331.536 121.528 332.164C136.224 332.792 149.221 324.548 155.47 312.249C159.602 314.133 164.178 315.284 169.016 315.52C170.532 315.572 172.023 315.52 173.513 315.415C182.012 326.773 195.348 334.362 210.646 335.016C225.551 335.671 239.201 329.521 248.615 319.419C254.446 330.541 265.821 338.34 279.236 338.916C293.513 339.544 306.17 331.824 312.602 320.047C319.636 323.711 327.534 325.909 335.98 326.302C354.363 327.061 371.046 318.922 381.898 305.68C384.409 306.596 387.128 307.198 389.952 307.303C404.491 307.957 416.782 296.652 417.409 282.101C418.037 267.63 406.819 255.356 392.332 254.65L392.28 254.702Z" fill="#E9F2F5"/>
<path d="M205.102 295.605C204.318 295.605 203.507 295.605 202.749 295.683C198.512 283.593 187.007 274.931 173.487 274.931C169.46 274.931 165.59 275.69 162.086 277.103C157.876 265.536 146.789 257.24 133.792 257.24C120.796 257.24 110.284 265.117 105.865 276.213C104.374 275.925 102.858 275.821 101.315 275.821C87.6387 275.821 76.3944 286.184 75.0085 299.478C73.0996 299.085 71.1123 298.902 69.0988 298.902C52.6246 298.902 39.2361 312.275 39.2361 328.762C39.2361 345.248 52.5985 358.621 69.0988 358.621H69.8832C72.812 370.685 83.664 379.635 96.608 379.635C106.649 379.635 115.409 374.297 120.195 366.263C126.732 377.463 138.892 385 152.777 385C168.179 385 181.411 375.762 187.294 362.547C192.524 365.582 198.617 367.309 205.128 367.309C224.923 367.309 240.953 351.267 240.953 331.431C240.953 311.594 224.923 295.605 205.128 295.605H205.102Z" fill="#D3E4EA"/>
<path d="M382.998 161.25C382.109 161.25 381.246 161.25 380.383 161.329C375.676 147.878 362.916 138.273 347.88 138.273C343.408 138.273 339.12 139.137 335.197 140.681C330.543 127.832 318.226 118.62 303.765 118.62C289.305 118.62 277.668 127.361 272.726 139.687C271.079 139.373 269.379 139.268 267.653 139.268C252.46 139.268 239.987 150.756 238.418 165.542C236.274 165.097 234.103 164.888 231.855 164.888C213.55 164.888 198.697 179.752 198.697 198.045C198.697 216.337 213.55 231.228 231.855 231.228H232.717C235.96 244.627 248.015 254.571 262.397 254.571C273.537 254.571 283.264 248.631 288.599 239.707C295.868 252.163 309.361 260.511 324.79 260.511C341.891 260.511 356.587 250.253 363.151 235.572C368.956 238.922 375.729 240.858 382.946 240.858C404.912 240.858 422.745 223.037 422.745 201.028C422.745 179.019 404.938 161.224 382.946 161.224L382.998 161.25Z" fill="#D3E4EA"/>
<path d="M228.103 191.345C226.665 191.345 225.201 191.45 223.789 191.633C218.454 175.853 203.549 164.469 185.976 164.469C177.87 164.469 170.313 166.929 164.011 171.09C159.696 159.235 148.347 150.782 135.011 150.782C119.975 150.782 107.45 161.538 104.704 175.801C100.468 172.634 95.2117 170.776 89.5112 170.776C76.4364 170.776 65.689 180.563 64.1723 193.203H63.9631C43.6712 193.203 27.197 209.664 27.197 229.998C27.197 250.331 43.645 266.766 63.9631 266.766C70.4482 266.766 76.5149 265.117 81.8232 262.16C83.706 274.905 94.6887 284.692 107.999 284.692C118.485 284.692 127.559 278.595 131.821 269.749C139.901 281.63 153.577 289.455 169.084 289.455C189.062 289.455 206.007 276.423 211.891 258.366C216.754 260.878 222.246 262.291 228.103 262.291C247.689 262.291 263.536 246.406 263.536 226.831C263.536 207.256 247.689 191.345 228.103 191.345Z" fill="white"/>
<path d="M353.657 320.623C350.415 320.466 347.303 320.911 344.427 321.853C340.609 302.566 324.082 287.518 303.529 286.472C283.603 285.451 266.109 297.829 259.781 315.729C242.915 314.866 228.532 327.819 227.669 344.673C226.806 361.578 239.75 375.945 256.617 376.809C265.298 377.254 273.326 374.009 279.184 368.461C285.041 371.889 291.762 374.009 298.979 374.349C311.897 375.029 323.795 370.057 332.293 361.604C336.66 367.205 343.355 370.999 351.016 371.392C365.032 372.125 376.983 361.343 377.715 347.29C378.447 333.263 367.674 321.329 353.657 320.571V320.623Z" fill="white"/>
</svg>
