<svg width="450" height="446" viewBox="0 0 450 446" fill="none" xmlns="http://www.w3.org/2000/svg">
<path d="M392.084 238.281C388.736 226.557 381.676 216.351 372.184 209.102C374.563 202.664 376.054 195.755 376.342 188.532C377.911 151.686 349.355 120.492 312.511 118.895C284.348 117.691 259.532 134.152 248.68 158.411C246.745 158.176 244.81 157.993 242.823 157.914C219.55 156.92 198.499 167.754 185.503 185.078C181.842 183.665 177.893 182.723 173.736 182.566C153.731 181.676 136.76 197.221 135.924 217.293C135.793 220.564 136.133 223.809 136.839 226.897C129.543 228.101 123.267 232.445 119.502 238.595C113.435 230.404 103.891 224.934 92.9339 224.463C77.7672 223.809 64.4572 232.942 59.0704 246.315C58.3905 246.21 57.7106 246.132 57.0307 246.132C43.1715 245.504 31.4566 256.285 30.8551 270.129C30.2798 284.025 41.0011 295.749 54.8865 296.325C62.0253 296.639 68.5888 293.943 73.348 289.338C78.1856 292.269 83.7816 294.074 89.8221 294.362C95.2874 306.479 107.159 315.115 121.332 315.743C136.028 316.371 149.024 308.127 155.274 295.828C159.406 297.712 163.982 298.863 168.82 299.099C170.336 299.151 171.827 299.099 173.317 298.994C181.816 310.352 195.152 317.941 210.45 318.595C225.355 319.249 239.005 313.1 248.419 302.998C254.25 314.12 265.625 321.919 279.04 322.494C293.317 323.122 305.973 315.402 312.406 303.626C319.44 307.29 327.338 309.488 335.784 309.881C354.167 310.64 370.85 302.501 381.702 289.259C384.213 290.175 386.932 290.777 389.756 290.882C404.295 291.536 416.586 280.231 417.213 265.68C417.841 251.208 406.623 238.935 392.136 238.228L392.084 238.281Z" fill="#008DD4"/>
<path d="M86.4088 241.857L92.36 253.12L105 254.596C106.911 254.815 107.375 256.127 106.037 257.494L97.192 266.652L99.7036 279.145C100.086 281.031 98.9938 281.878 97.2739 281.031L85.8355 275.427L74.7519 281.66C73.0593 282.616 71.94 281.824 72.213 279.91L74.0148 267.308L64.6511 258.669C63.2315 257.357 63.641 256.018 65.5246 255.69L78.0551 253.503L83.3785 241.912C84.1702 240.162 85.5624 240.135 86.4633 241.83L86.4088 241.857Z" fill="#FFD45C"/>
<path d="M204.906 279.184C204.121 279.184 203.311 279.184 202.552 279.262C198.316 267.172 186.81 258.51 173.291 258.51C169.264 258.51 165.394 259.269 161.89 260.682C157.68 249.115 146.592 240.819 133.596 240.819C120.6 240.819 110.088 248.696 105.669 259.792C104.178 259.504 102.661 259.4 101.119 259.4C87.4424 259.4 76.1982 269.763 74.8122 283.057C72.9033 282.664 70.916 282.481 68.9025 282.481C52.4283 282.481 39.0398 295.854 39.0398 312.341C39.0398 328.827 52.4022 342.2 68.9025 342.2H69.6869C72.6157 354.264 83.4677 363.214 96.4117 363.214C106.453 363.214 115.213 357.876 119.998 349.842C126.536 361.042 138.695 368.579 152.581 368.579C167.983 368.579 181.214 359.341 187.098 346.126C192.328 349.161 198.421 350.888 204.932 350.888C224.727 350.888 240.757 334.846 240.757 315.01C240.757 295.173 224.727 279.184 204.932 279.184H204.906Z" fill="url(#paint0_linear_237_3295)"/>
<path d="M296.115 248.696C256.551 288.291 192.432 288.291 152.868 248.696C113.304 209.102 113.304 144.934 152.868 105.339C168.349 89.8208 187.647 80.3736 207.73 77.0239C176.089 76.3958 144.213 88.1721 120.077 112.353C72.9818 159.484 72.9818 235.899 120.077 283.031C167.172 330.162 243.529 330.162 290.624 283.031C317.165 256.469 328.75 220.616 325.376 185.942C323.363 208.84 313.609 231.163 296.115 248.67V248.696Z" fill="#FF9D00"/>
<path d="M384.631 80.3473L396.058 101.963L420.351 104.79C424.038 105.208 424.927 107.721 422.365 110.39L405.341 127.95L410.127 151.947C410.859 155.585 408.741 157.207 405.446 155.559L383.48 144.803L362.169 156.789C358.952 158.62 356.756 157.103 357.279 153.439L360.73 129.232L342.739 112.667C340.02 110.154 340.778 107.59 344.439 106.962L368.523 102.775L378.721 80.5305C380.264 77.1808 382.905 77.1023 384.657 80.3735L384.631 80.3473Z" fill="#FFD45C"/>
<path d="M382.8 144.829C381.911 144.829 381.048 144.829 380.185 144.908C375.478 131.457 362.718 121.852 347.682 121.852C343.21 121.852 338.922 122.716 334.999 124.26C330.345 111.411 318.028 102.199 303.567 102.199C289.107 102.199 277.47 110.94 272.528 123.265C270.881 122.951 269.181 122.847 267.455 122.847C252.262 122.847 239.789 134.335 238.22 149.121C236.076 148.676 233.905 148.467 231.657 148.467C213.352 148.467 198.499 163.331 198.499 181.624C198.499 199.916 213.352 214.807 231.657 214.807H232.519C235.762 228.205 247.817 238.15 262.199 238.15C273.339 238.15 283.066 232.209 288.401 223.286C295.67 235.742 309.163 244.09 324.592 244.09C341.693 244.09 356.389 233.832 362.953 219.151C368.758 222.5 375.531 224.437 382.748 224.437C404.714 224.437 422.547 206.616 422.547 184.607C422.547 162.598 404.74 144.803 382.748 144.803L382.8 144.829Z" fill="url(#paint1_linear_237_3295)"/>
<path d="M238.272 128.813L246.666 144.724L264.526 146.818C267.246 147.132 267.9 148.99 265.991 150.927L253.465 163.854L256.995 181.493C257.544 184.162 255.976 185.366 253.544 184.162L237.383 176.233L221.72 185.052C219.34 186.386 217.745 185.287 218.111 182.592L220.648 164.77L207.416 152.575C205.402 150.717 205.978 148.833 208.645 148.362L226.348 145.274L233.853 128.918C234.978 126.458 236.939 126.38 238.22 128.813H238.272Z" fill="#FFD45C"/>
<path d="M227.906 174.924C226.468 174.924 225.004 175.029 223.592 175.212C218.257 159.432 203.352 148.048 185.779 148.048C177.673 148.048 170.116 150.508 163.814 154.669C159.499 142.814 148.15 134.361 134.814 134.361C119.778 134.361 107.253 145.117 104.507 159.38C100.271 156.213 95.0147 154.355 89.3141 154.355C76.2394 154.355 65.492 164.142 63.9753 176.782H63.7661C43.4742 176.782 27 193.243 27 213.577C27 233.91 43.448 250.345 63.7661 250.345C70.2512 250.345 76.3179 248.696 81.6262 245.739C83.509 258.484 94.4917 268.271 107.802 268.271C118.288 268.271 127.362 262.174 131.624 253.328C139.704 265.209 153.38 273.034 168.887 273.034C188.865 273.034 205.81 260.002 211.694 241.945C216.557 244.457 222.049 245.87 227.906 245.87C247.492 245.87 263.339 229.985 263.339 210.41C263.339 190.835 247.492 174.924 227.906 174.924Z" fill="#007FC9"/>
<path d="M353.461 304.202C350.218 304.045 347.106 304.49 344.23 305.432C340.412 286.145 323.886 271.097 303.332 270.051C283.406 269.03 265.912 281.408 259.584 299.308C242.718 298.445 228.336 311.398 227.473 328.252C226.61 345.157 239.554 359.524 256.42 360.388C265.102 360.833 273.13 357.588 278.987 352.04C284.845 355.468 291.565 357.588 298.782 357.928C311.7 358.608 323.598 353.636 332.097 345.183C336.464 350.784 343.158 354.578 350.82 354.971C364.836 355.704 376.786 344.922 377.518 330.869C378.25 316.842 367.477 304.908 353.461 304.15V304.202Z" fill="#6ED8FF"/>
<defs>
<linearGradient id="paint0_linear_237_3295" x1="39.0136" y1="304.699" x2="240.73" y2="304.699" gradientUnits="userSpaceOnUse">
<stop stop-color="#1062A1"/>
<stop offset="1" stop-color="#0A4D80"/>
</linearGradient>
<linearGradient id="paint1_linear_237_3295" x1="198.525" y1="173.171" x2="422.6" y2="173.171" gradientUnits="userSpaceOnUse">
<stop stop-color="#076BBA"/>
<stop offset="1" stop-color="#0060AB"/>
</linearGradient>
</defs>
</svg>
