<svg width="450" height="446" viewBox="0 0 450 446" fill="none" xmlns="http://www.w3.org/2000/svg">
<path d="M220.442 76.83C220.442 99.9853 199.041 118.723 199.041 118.723C199.041 118.723 177.64 99.9853 177.64 76.83C177.64 53.6747 199.041 35 199.041 35C199.041 35 220.442 53.7374 220.442 76.83Z" fill="#FFD45C"/>
<path d="M220.442 369.233C220.442 392.325 199.041 411.125 199.041 411.125C199.041 411.125 177.64 392.325 177.64 369.233C177.64 346.14 199.041 327.403 199.041 327.403C199.041 327.403 220.442 346.14 220.442 369.233Z" fill="#FFD45C"/>
<path d="M49.8613 201.909C72.9853 201.909 91.7227 223.31 91.7227 223.31C91.7227 223.31 72.9853 244.679 49.8613 244.679C26.7373 244.679 8 223.31 8 223.31C8 223.31 26.7373 201.909 49.8613 201.909Z" fill="#FFD45C"/>
<path d="M345.211 201.631C368.335 201.631 387.073 223.031 387.073 223.031C387.073 223.031 368.335 244.401 345.211 244.401C322.087 244.401 303.35 223.031 303.35 223.031C303.35 223.031 322.119 201.631 345.211 201.631Z" fill="#FFD45C"/>
<path d="M80.5384 311.266C96.8631 294.941 125.251 296.79 125.251 296.79C125.251 296.79 127.1 325.178 110.775 341.503C94.4191 357.89 66.0311 355.979 66.0311 355.979C66.0311 355.979 64.1824 327.622 80.507 311.235L80.5384 311.266Z" fill="#FFD45C"/>
<path d="M287.276 104.529C303.632 88.2041 332.02 90.0528 332.02 90.0528C332.02 90.0528 333.9 118.409 317.544 134.797C301.188 151.121 272.8 149.273 272.8 149.273C272.8 149.273 270.92 120.885 287.276 104.56V104.529Z" fill="#FFD45C"/>
<path d="M287.276 341.503C270.92 325.178 272.8 296.79 272.8 296.79C272.8 296.79 301.156 294.91 317.544 311.266C333.9 327.653 332.02 356.01 332.02 356.01C332.02 356.01 303.663 357.921 287.276 341.534V341.503Z" fill="#FFD45C"/>
<path d="M80.5384 134.797C64.2138 118.409 66.0624 90.0528 66.0624 90.0528C66.0624 90.0528 94.4191 88.2041 110.806 104.529C127.131 120.853 125.282 149.241 125.282 149.241C125.282 149.241 96.8944 151.09 80.5698 134.765L80.5384 134.797Z" fill="#FFD45C"/>
<path d="M327.539 294.785C310.431 287.735 303.162 266.177 303.162 266.177C303.162 266.177 323.56 256.088 340.668 263.138C357.745 270.251 365.045 291.777 365.045 291.777C365.045 291.777 344.647 301.835 327.539 294.785Z" fill="#FFD45C"/>
<path d="M57.4144 182.893C40.3064 175.781 33.0371 154.255 33.0371 154.255C33.0371 154.255 53.4351 144.197 70.5431 151.278C87.6197 158.328 94.9204 179.917 94.9204 179.917C94.9204 179.917 74.5224 189.975 57.4144 182.893Z" fill="#FFD45C"/>
<path d="M158.903 81.436C165.953 98.5127 155.926 118.911 155.926 118.911C155.926 118.911 134.369 111.61 127.288 94.5333C120.238 77.4253 130.264 57.0273 130.264 57.0273C130.264 57.0273 151.853 64.328 158.903 81.436Z" fill="#FFD45C"/>
<path d="M270.763 351.561C277.876 368.637 267.786 389.035 267.786 389.035C267.786 389.035 246.261 381.735 239.179 364.658C232.098 347.55 242.187 327.152 242.187 327.152C242.187 327.152 263.713 334.453 270.763 351.561Z" fill="#FFD45C"/>
<path d="M57.4145 263.138C74.4912 256.088 94.8892 266.177 94.8892 266.177C94.8892 266.177 87.5885 287.703 70.5119 294.785C53.4039 301.835 33.0059 291.777 33.0059 291.777C33.0059 291.777 40.2752 270.251 57.4145 263.138Z" fill="#FFD45C"/>
<path d="M327.539 151.278C344.647 144.197 365.045 154.255 365.045 154.255C365.045 154.255 357.745 175.781 340.668 182.893C323.56 189.943 303.162 179.917 303.162 179.917C303.162 179.917 310.431 158.328 327.539 151.278Z" fill="#FFD45C"/>
<path d="M126.526 349.318C133.607 332.21 155.164 324.909 155.164 324.909C155.164 324.909 165.222 345.307 158.141 362.415C151.091 379.492 129.502 386.793 129.502 386.793C129.502 386.793 119.444 366.395 126.526 349.318Z" fill="#FFD45C"/>
<path d="M239.148 81.436C246.229 64.328 267.755 57.0273 267.755 57.0273C267.755 57.0273 277.844 77.4253 270.732 94.5333C263.682 111.61 242.156 118.911 242.156 118.911C242.156 118.911 232.066 98.5127 239.148 81.436Z" fill="#FFD45C"/>
<path d="M318.202 223.031C318.202 288.863 264.841 342.223 199.01 342.223C133.178 342.223 79.8177 288.863 79.8177 223.031C79.8177 157.2 133.178 103.839 199.01 103.839C264.841 103.839 318.202 157.2 318.202 223.031Z" fill="#FF9D00"/>
<path d="M186.102 295.605C185.318 295.605 184.507 295.605 183.749 295.683C179.512 283.593 168.007 274.931 154.487 274.931C150.46 274.931 146.59 275.69 143.086 277.103C138.876 265.536 127.789 257.24 114.792 257.24C101.796 257.24 91.2841 265.117 86.8649 276.213C85.3744 275.925 83.8577 275.821 82.3149 275.821C68.6387 275.821 57.3944 286.184 56.0085 299.478C54.0996 299.085 52.1123 298.902 50.0988 298.902C33.6246 298.902 20.2361 312.275 20.2361 328.762C20.2361 345.248 33.5985 358.621 50.0988 358.621H50.8832C53.812 370.685 64.664 379.635 77.608 379.635C87.6494 379.635 96.4094 374.297 101.195 366.263C107.732 377.463 119.892 385 133.777 385C149.179 385 162.411 375.762 168.294 362.547C173.524 365.582 179.617 367.309 186.128 367.309C205.923 367.309 221.953 351.267 221.953 331.431C221.953 311.594 205.923 295.605 186.128 295.605H186.102Z" fill="#D3E4EA"/>
<path d="M402.301 135.63C401.412 135.63 400.549 135.63 399.686 135.709C394.979 122.258 382.218 112.653 367.182 112.653C362.711 112.653 358.422 113.517 354.5 115.061C349.845 102.212 337.529 93 323.068 93C308.608 93 296.971 101.741 292.029 114.066C290.381 113.752 288.682 113.648 286.956 113.648C271.763 113.648 259.29 125.136 257.721 139.922C255.577 139.477 253.406 139.268 251.157 139.268C232.853 139.268 218 154.132 218 172.425C218 190.717 232.853 205.608 251.157 205.608H252.02C255.263 219.006 267.318 228.951 281.7 228.951C292.839 228.951 302.567 223.01 307.902 214.087C315.171 226.543 328.664 234.891 344.092 234.891C361.194 234.891 375.89 224.633 382.454 209.952C388.259 213.301 395.031 215.238 402.249 215.238C424.214 215.238 442.048 197.417 442.048 175.408C442.048 153.399 424.24 135.604 402.249 135.604L402.301 135.63Z" fill="#D3E4EA"/>
<path d="M219.103 191.345C217.665 191.345 216.201 191.45 214.789 191.633C209.454 175.853 194.549 164.469 176.976 164.469C168.87 164.469 161.313 166.929 155.011 171.09C150.696 159.235 139.347 150.782 126.011 150.782C110.975 150.782 98.4497 161.538 95.704 175.801C91.4678 172.634 86.2117 170.776 80.5112 170.776C67.4364 170.776 56.689 180.563 55.1723 193.203H54.9631C34.6712 193.203 18.197 209.664 18.197 229.998C18.197 250.331 34.645 266.766 54.9631 266.766C61.4482 266.766 67.5149 265.117 72.8232 262.16C74.706 274.905 85.6887 284.692 98.9988 284.692C109.485 284.692 118.559 278.595 122.821 269.749C130.901 281.63 144.577 289.455 160.084 289.455C180.062 289.455 197.007 276.423 202.891 258.366C207.754 260.878 213.246 262.291 219.103 262.291C238.689 262.291 254.536 246.406 254.536 226.831C254.536 207.256 238.689 191.345 219.103 191.345Z" fill="white"/>
<path d="M348.029 279.21C344.786 279.053 341.674 279.498 338.798 280.44C334.98 261.153 318.454 246.106 297.9 245.059C277.974 244.038 260.48 256.416 254.152 274.316C237.286 273.453 222.903 286.407 222.041 303.26C221.178 320.165 234.122 334.532 250.988 335.396C259.67 335.841 267.697 332.596 273.555 327.048C279.412 330.476 286.133 332.596 293.35 332.936C306.268 333.617 318.166 328.644 326.664 320.192C331.031 325.792 337.726 329.586 345.387 329.979C359.404 330.712 371.354 319.93 372.086 305.877C372.818 291.85 362.045 279.917 348.029 279.158V279.21Z" fill="white"/>
</svg>
