<svg width="450" height="446" viewBox="0 0 450 446" fill="none" xmlns="http://www.w3.org/2000/svg">
<path d="M62.4088 242.278L68.36 253.541L80.9997 255.017C82.9107 255.236 83.3747 256.548 82.037 257.915L73.192 267.073L75.7036 279.566C76.0858 281.452 74.9938 282.299 73.2739 281.452L61.8355 275.848L50.7519 282.081C49.0593 283.037 47.94 282.245 48.213 280.331L50.0148 267.729L40.6511 259.09C39.2315 257.778 39.641 256.439 41.5246 256.111L54.0551 253.924L59.3785 242.333C60.1702 240.583 61.5624 240.556 62.4633 242.251L62.4088 242.278Z" fill="#FFD45C"/>
<path d="M180.905 279.605C180.121 279.605 179.31 279.605 178.552 279.683C174.315 267.593 162.81 258.931 149.29 258.931C145.263 258.931 141.393 259.69 137.889 261.103C133.679 249.536 122.592 241.24 109.595 241.24C96.5992 241.24 86.0871 249.117 81.6679 260.213C80.1773 259.925 78.6607 259.821 77.1178 259.821C63.4417 259.821 52.1974 270.184 50.8115 283.478C48.9026 283.085 46.9152 282.902 44.9017 282.902C28.4276 282.902 15.0391 296.275 15.0391 312.762C15.0391 329.248 28.4014 342.621 44.9017 342.621H45.6862C48.615 354.685 59.467 363.635 72.411 363.635C82.4523 363.635 91.2124 358.297 95.9978 350.263C102.535 361.463 114.695 369 128.58 369C143.982 369 157.214 359.762 163.097 346.547C168.327 349.582 174.42 351.309 180.931 351.309C200.726 351.309 216.756 335.267 216.756 315.431C216.756 295.594 200.726 279.605 180.931 279.605H180.905Z" fill="url(#paint0_linear_237_3316)"/>
<path d="M272.115 249.117C232.551 288.712 168.433 288.712 128.869 249.117C89.3045 209.523 89.3045 145.355 128.869 105.76C144.349 90.2418 163.647 80.7946 183.73 77.4449C152.089 76.8168 120.213 88.5931 96.0772 112.774C48.9821 159.905 48.9821 236.32 96.0772 283.452C143.172 330.583 219.529 330.583 266.624 283.452C293.166 256.89 304.75 221.037 301.377 186.363C299.363 209.261 289.609 231.584 272.115 249.091V249.117Z" fill="#FF9D00"/>
<path d="M397.104 119.63C396.215 119.63 395.352 119.63 394.489 119.709C389.782 106.258 377.021 96.6533 361.985 96.6533C357.514 96.6533 353.225 97.5169 349.303 99.0609C344.648 86.2117 332.332 77 317.871 77C303.411 77 291.774 85.7406 286.832 98.0665C285.184 97.7525 283.485 97.6478 281.759 97.6478C266.566 97.6478 254.093 109.136 252.524 123.922C250.379 123.477 248.209 123.268 245.96 123.268C227.656 123.268 212.803 138.132 212.803 156.425C212.803 174.717 227.656 189.608 245.96 189.608H246.823C250.066 203.006 262.121 212.951 276.503 212.951C287.642 212.951 297.37 207.01 302.705 198.087C309.974 210.543 323.467 218.891 338.895 218.891C355.997 218.891 370.693 208.633 377.257 193.952C383.062 197.301 389.834 199.238 397.052 199.238C419.017 199.238 436.851 181.417 436.851 159.408C436.851 137.399 419.043 119.604 397.052 119.604L397.104 119.63Z" fill="url(#paint1_linear_237_3316)"/>
<path d="M360.63 80.7683L372.057 102.384L396.35 105.211C400.037 105.629 400.926 108.142 398.364 110.811L381.34 128.371L386.126 152.368C386.858 156.006 384.74 157.628 381.445 155.98L359.479 145.224L338.168 157.21C334.951 159.042 332.755 157.524 333.278 153.86L336.729 129.653L318.739 113.088C316.019 110.575 316.777 108.011 320.438 107.383L344.522 103.196L354.72 80.9515C356.263 77.6018 358.904 77.5233 360.656 80.7945L360.63 80.7683Z" fill="#FFD45C"/>
<path d="M213.865 100.783L222.259 116.695L240.119 118.788C242.838 119.102 243.492 120.96 241.583 122.897L229.057 135.824L232.588 153.463C233.137 156.132 231.568 157.336 229.136 156.132L212.976 148.203L197.312 157.022C194.932 158.356 193.337 157.257 193.703 154.562L196.24 136.74L183.008 124.545C180.995 122.687 181.57 120.803 184.237 120.332L201.94 117.244L209.445 100.888C210.57 98.4282 212.531 98.3497 213.812 100.783H213.865Z" fill="#FFD45C"/>
<path d="M213.906 175.345C212.468 175.345 211.004 175.45 209.592 175.633C204.257 159.853 189.352 148.469 171.779 148.469C163.673 148.469 156.116 150.929 149.814 155.09C145.499 143.235 134.15 134.782 120.814 134.782C105.778 134.782 93.2527 145.538 90.507 159.801C86.2707 156.634 81.0147 154.776 75.3141 154.776C62.2394 154.776 51.492 164.563 49.9753 177.203H49.7661C29.4742 177.203 13 193.664 13 213.998C13 234.331 29.448 250.766 49.7661 250.766C56.2512 250.766 62.3179 249.117 67.6262 246.16C69.509 258.905 80.4917 268.692 93.8018 268.692C104.288 268.692 113.362 262.595 117.624 253.749C125.704 265.63 139.38 273.455 154.887 273.455C174.865 273.455 191.81 260.423 197.694 242.366C202.557 244.878 208.049 246.291 213.906 246.291C233.492 246.291 249.339 230.406 249.339 210.831C249.339 191.256 233.492 175.345 213.906 175.345Z" fill="#007FC9"/>
<path d="M342.832 263.21C339.589 263.053 336.477 263.498 333.601 264.44C329.783 245.153 313.257 230.106 292.703 229.059C272.777 228.038 255.283 240.416 248.955 258.316C232.089 257.453 217.706 270.407 216.843 287.26C215.981 304.165 228.925 318.532 245.791 319.396C254.473 319.841 262.5 316.596 268.358 311.048C274.215 314.476 280.936 316.596 288.153 316.936C301.071 317.617 312.969 312.644 321.467 304.192C325.834 309.792 332.529 313.586 340.19 313.979C354.207 314.712 366.157 303.93 366.889 289.877C367.621 275.85 356.848 263.917 342.832 263.158V263.21Z" fill="#008DD4"/>
<defs>
<linearGradient id="paint0_linear_237_3316" x1="15.0129" y1="305.12" x2="216.73" y2="305.12" gradientUnits="userSpaceOnUse">
<stop stop-color="#1062A1"/>
<stop offset="1" stop-color="#0A4D80"/>
</linearGradient>
<linearGradient id="paint1_linear_237_3316" x1="212.829" y1="147.972" x2="436.903" y2="147.972" gradientUnits="userSpaceOnUse">
<stop stop-color="#076BBA"/>
<stop offset="1" stop-color="#0060AB"/>
</linearGradient>
</defs>
</svg>
