<svg width="450" height="446" viewBox="0 0 450 446" fill="none" xmlns="http://www.w3.org/2000/svg">
<path d="M296.313 229.696C256.748 269.291 192.63 269.291 153.066 229.696C113.502 190.102 113.502 125.934 153.066 86.3393C168.546 70.8208 187.845 61.3736 207.927 58.0239C176.287 57.3958 144.41 69.1721 120.274 93.3528C73.1793 140.484 73.1793 216.899 120.274 264.031C167.37 311.162 243.726 311.162 290.821 264.031C317.363 237.469 328.947 201.616 325.574 166.942C323.56 189.84 313.807 212.163 296.313 229.67V229.696Z" fill="#FF9D00"/>
<path d="M26.606 212.857L32.5573 224.12L45.197 225.596C47.1079 225.815 47.572 227.127 46.2343 228.494L37.3893 237.652L39.9009 250.145C40.283 252.031 39.1911 252.878 37.4712 252.031L26.0327 246.427L14.9491 252.66C13.2566 253.616 12.1373 252.824 12.4103 250.91L14.212 238.308L4.84833 229.669C3.42876 228.357 3.83823 227.018 5.7219 226.69L18.2523 224.503L23.5758 212.912C24.3675 211.162 25.7597 211.135 26.6606 212.83L26.606 212.857Z" fill="#FFD45C"/>
<path d="M384.827 61.3473L396.254 82.9634L420.547 85.7897C424.234 86.2084 425.123 88.7207 422.561 91.39L405.538 108.95L410.323 132.947C411.055 136.585 408.937 138.207 405.642 136.559L383.677 125.803L362.365 137.789C359.148 139.62 356.952 138.103 357.475 134.439L360.927 110.232L342.936 93.6667C340.216 91.1545 340.975 88.5898 344.635 87.9618L368.719 83.7746L378.917 61.5305C380.46 58.1808 383.101 58.1023 384.853 61.3735L384.827 61.3473Z" fill="#FFD45C"/>
<path d="M370.335 222.948C367.085 211.523 360.232 201.577 351.017 194.513C353.327 188.239 354.748 181.506 355.053 174.468C356.602 138.509 328.856 108.161 293.088 106.631C265.749 105.458 241.659 121.474 231.124 145.14C229.246 144.91 227.367 144.732 225.438 144.655C202.845 143.686 182.41 154.244 169.794 171.127C166.24 169.724 162.432 168.832 158.371 168.679C138.951 167.812 122.502 182.96 121.664 202.521C121.537 205.708 121.867 208.871 122.553 211.88C115.47 213.053 109.378 217.286 105.723 223.28C99.8334 215.297 90.5679 209.967 79.9062 209.508C65.183 208.871 52.2875 217.771 47.0328 230.803C46.3474 230.701 45.7128 230.624 45.0528 230.624C31.5988 230.012 20.201 240.519 19.6425 254.01C19.084 267.552 29.5172 278.977 42.9712 279.538C49.9013 279.844 56.2729 277.217 60.8929 272.729C65.5638 275.585 71.0215 277.345 76.8854 277.625C82.1655 289.433 93.7156 297.849 107.474 298.461C121.741 299.073 134.357 291.04 140.398 279.053C144.435 280.89 148.852 282.012 153.548 282.241C155.02 282.292 156.492 282.241 157.914 282.139C166.164 293.207 179.11 300.603 193.961 301.241C208.43 301.878 221.681 295.911 230.819 286.016C236.455 296.88 247.523 304.479 260.545 305.041C274.38 305.653 286.692 298.129 292.936 286.653C299.765 290.224 307.431 292.366 315.605 292.748C333.476 293.488 349.671 285.557 360.155 272.652C362.618 273.545 365.258 274.132 367.999 274.234C382.113 274.871 394.044 263.854 394.653 249.675C395.263 235.572 384.373 223.611 370.335 222.923V222.948Z" fill="#433D4A"/>
<path d="M411.376 181.309C410.614 181.309 409.853 181.309 409.091 181.386C405.004 169.655 393.886 161.264 380.838 161.264C376.954 161.264 373.222 162.004 369.821 163.381C365.759 152.185 355.047 144.127 342.481 144.127C329.916 144.127 319.787 151.752 315.497 162.514C314.05 162.259 312.603 162.131 311.106 162.131C297.88 162.131 287.041 172.179 285.695 185.084C283.842 184.701 281.938 184.523 279.984 184.523C264.042 184.523 251.146 197.503 251.146 213.494C251.146 229.484 264.067 242.464 279.984 242.464H280.72C283.538 254.17 294.022 262.841 306.536 262.841C316.233 262.841 324.687 257.638 329.332 249.86C335.653 260.724 347.406 268.018 360.809 268.018C375.685 268.018 388.479 259.066 394.165 246.239C399.217 249.172 405.106 250.855 411.376 250.855C430.491 250.855 445.975 235.298 445.975 216.069C445.975 196.84 430.465 181.309 411.376 181.309Z" fill="#6E667D"/>
<path d="M383.046 110.922C381.473 110.922 379.899 111.024 378.376 111.228C372.562 94.0142 356.392 81.5945 337.277 81.5945C328.469 81.5945 320.244 84.2723 313.39 88.8117C308.694 75.8819 296.357 66.65 281.862 66.65C265.514 66.65 251.908 78.3812 248.913 93.9632C244.318 90.4949 238.581 88.4802 232.387 88.4802C218.172 88.4802 206.494 99.1657 204.844 112.963H204.616C182.556 112.963 164.66 130.942 164.66 153.129C164.66 175.316 182.556 193.27 204.616 193.27C211.673 193.27 218.273 191.459 224.01 188.22C226.066 202.145 238.022 212.805 252.466 212.805C263.864 212.805 273.739 206.149 278.384 196.483C287.168 209.464 302.043 217.982 318.899 217.982C340.603 217.982 359.032 203.777 365.429 184.064C370.709 186.818 376.7 188.348 383.072 188.348C404.344 188.348 421.606 171.006 421.606 149.661C421.606 128.315 404.37 110.922 383.072 110.922H383.046Z" fill="#686075"/>
<path d="M234.823 185.747C236.499 179.754 237.387 173.455 237.387 166.9C237.387 128.086 206.062 96.6155 167.401 96.6155C134.654 96.6155 107.188 119.185 99.5217 149.686C98.8109 149.661 98.1001 149.61 97.3894 149.61C82.1077 149.61 68.6537 157.541 60.8605 169.502C56.8751 167.844 52.5089 166.9 47.9142 166.9C29.2056 166.9 14.0254 182.176 14.0254 200.972C14.0254 219.767 29.2056 235.043 47.9142 235.043C56.1643 235.043 63.7036 232.085 69.5929 227.137C77.1576 233.462 86.8546 237.211 97.4148 237.211C109.219 237.211 119.906 232.518 127.775 224.842C139.046 232.671 152.703 237.211 167.426 237.211C180.855 237.211 193.395 233.411 204.082 226.78C208.931 232.875 216.368 236.777 224.72 236.777C239.316 236.777 251.146 224.893 251.146 210.229C251.146 199.161 244.419 189.7 234.849 185.721L234.823 185.747Z" fill="#595264"/>
<path d="M285.06 367.962C285.06 378.214 276.759 386.579 266.529 386.579C256.299 386.579 248.023 378.24 248.023 367.962C248.023 352.533 266.529 325.96 266.529 325.96C266.529 325.96 285.06 352.559 285.06 367.962Z" fill="#C0BACF"/>
<path d="M243.988 248.049C243.988 258.301 235.687 266.666 225.457 266.666C215.227 266.666 206.951 258.327 206.951 248.049C206.951 232.62 225.457 206.047 225.457 206.047C225.457 206.047 243.988 232.646 243.988 248.049Z" fill="#C0BACF"/>
<path d="M199.31 348.019C199.31 358.271 191.009 366.636 180.779 366.636C170.549 366.636 162.273 358.297 162.273 348.019C162.273 332.59 180.779 306.016 180.779 306.016C180.779 306.016 199.31 332.616 199.31 348.019Z" fill="#C0BACF"/>
<path d="M82.0366 368.582C82.0366 378.834 73.7357 387.198 63.5056 387.198C53.2755 387.198 45 378.859 45 368.582C45 353.153 63.5056 326.579 63.5056 326.579C63.5056 326.579 82.0366 353.178 82.0366 368.582Z" fill="#C0BACF"/>
<path d="M310.47 286.15C310.47 296.402 302.169 304.767 291.939 304.767C281.709 304.767 273.434 296.428 273.434 286.15C273.434 270.721 291.939 244.147 291.939 244.147C291.939 244.147 310.47 270.747 310.47 286.15Z" fill="#C0BACF"/>
<path d="M233.199 314.432C233.199 322.032 227.081 328.204 219.516 328.204C211.952 328.204 205.834 322.032 205.834 314.432C205.834 303.084 219.516 283.396 219.516 283.396C219.516 283.396 233.199 303.058 233.199 314.432Z" fill="#C0BACF"/>
<path d="M123.365 336.616C123.365 344.215 117.247 350.387 109.682 350.387C102.118 350.387 96 344.215 96 336.616C96 325.267 109.682 305.579 109.682 305.579C109.682 305.579 123.365 325.241 123.365 336.616Z" fill="#C0BACF"/>
<path d="M356.545 251.314C356.545 258.914 350.427 265.085 342.862 265.085C335.297 265.085 329.18 258.914 329.18 251.314C329.18 239.965 342.862 220.277 342.862 220.277C342.862 220.277 356.545 239.94 356.545 251.314Z" fill="#C0BACF"/>
<path d="M165.472 303.186C165.472 310.786 159.355 316.957 151.79 316.957C144.225 316.957 138.107 310.786 138.107 303.186C138.107 291.837 151.79 272.149 151.79 272.149C151.79 272.149 165.472 291.812 165.472 303.186Z" fill="#C0BACF"/>
<path d="M82.3649 290.616C82.3649 298.215 76.2471 304.387 68.6825 304.387C61.1178 304.387 55 298.215 55 290.616C55 279.267 68.6825 259.579 68.6825 259.579C68.6825 259.579 82.3649 279.241 82.3649 290.616Z" fill="#C0BACF"/>
<path d="M128.561 262.458C128.561 268.528 123.662 273.45 117.621 273.45C111.579 273.45 106.705 268.528 106.705 262.458C106.705 253.405 117.621 237.721 117.621 237.721C117.621 237.721 128.561 253.405 128.561 262.458Z" fill="#C0BACF"/>
<path d="M35.8564 317.316C35.8564 323.386 30.9571 328.308 24.9155 328.308C18.8739 328.308 14 323.386 14 317.316C14 308.263 24.9155 292.579 24.9155 292.579C24.9155 292.579 35.8564 308.263 35.8564 317.316Z" fill="#C0BACF"/>
<path d="M424.195 254.374C424.195 260.061 419.625 264.651 413.964 264.651C408.304 264.651 403.734 260.061 403.734 254.374C403.734 245.882 413.964 231.167 413.964 231.167C413.964 231.167 424.195 245.882 424.195 254.374Z" fill="#C0BACF"/>
<path d="M182.708 243.688C182.708 249.376 178.139 253.966 172.478 253.966C166.817 253.966 162.248 249.376 162.248 243.688C162.248 235.196 172.478 220.481 172.478 220.481C172.478 220.481 182.708 235.196 182.708 243.688Z" fill="#C0BACF"/>
<path d="M323.493 348.402C323.493 354.089 318.924 358.679 313.263 358.679C307.602 358.679 303.033 354.089 303.033 348.402C303.033 339.909 313.263 325.194 313.263 325.194C313.263 325.194 323.493 339.909 323.493 348.402Z" fill="#C0BACF"/>
<path d="M411.171 316.524C411.171 322.211 406.602 326.801 400.941 326.801C395.28 326.801 390.711 322.211 390.711 316.524C390.711 308.031 400.941 293.316 400.941 293.316C400.941 293.316 411.171 308.031 411.171 316.524Z" fill="#C0BACF"/>
<path d="M367.409 316.116C367.409 325.22 360.098 332.539 351.035 332.539C341.973 332.539 334.662 325.194 334.662 316.116C334.662 302.497 351.035 278.958 351.035 278.958C351.035 278.958 367.409 302.497 367.409 316.116Z" fill="#C0BACF"/>
</svg>
