<svg width="450" height="446" viewBox="0 0 450 446" fill="none" xmlns="http://www.w3.org/2000/svg">
<path d="M397.149 226.11C393.609 213.724 386.143 202.942 376.105 195.283C378.622 188.482 380.17 181.183 380.502 173.552C382.189 134.569 351.965 101.669 313.003 100.01C283.222 98.7379 256.98 116.101 245.504 141.758C243.458 141.509 241.412 141.315 239.31 141.232C214.7 140.182 192.44 151.628 178.696 169.93C174.825 168.41 170.677 167.442 166.253 167.276C145.099 166.336 127.18 182.759 126.268 203.965C126.13 207.421 126.489 210.849 127.236 214.111C119.521 215.383 112.884 219.973 108.902 226.47C102.487 217.816 92.3939 212.038 80.78 211.54C64.7418 210.849 50.6944 220.498 44.9704 234.626C44.2238 234.515 43.5325 234.432 42.8136 234.432C28.1579 233.769 15.7421 245.159 15.1337 259.785C14.5254 274.466 25.8904 286.852 40.5461 287.46C48.0951 287.792 55.0358 284.944 60.0685 280.078C65.1565 283.175 71.1018 285.083 77.4894 285.387C83.2411 298.188 95.8228 307.311 110.81 307.975C126.351 308.638 140.094 299.929 146.675 286.935C151.072 288.926 155.883 290.142 160.999 290.391C162.603 290.446 164.207 290.391 165.755 290.28C174.742 302.279 188.845 310.297 205.021 310.988C220.783 311.68 235.217 305.21 245.172 294.483C251.311 306.261 263.367 314.5 277.553 315.108C292.623 315.771 306.035 307.615 312.837 295.174C320.276 299.045 328.627 301.367 337.531 301.782C356.998 302.583 374.64 293.985 386.06 279.995C388.742 280.963 391.618 281.599 394.605 281.71C409.979 282.401 422.976 270.457 423.639 255.085C424.303 239.796 412.44 226.829 397.149 226.083V226.11Z" fill="#433D4B"/>
<path d="M285.738 186.768C287.563 180.271 288.531 173.442 288.531 166.336C288.531 124.257 254.408 90.1396 212.294 90.1396C176.622 90.1396 146.703 114.608 138.352 147.674C137.578 147.647 136.803 147.591 136.029 147.591C119.382 147.591 104.727 156.19 96.2376 169.156C91.8962 167.359 87.14 166.336 82.135 166.336C61.7553 166.336 45.2193 182.897 45.2193 203.274C45.2193 223.65 61.7553 240.211 82.135 240.211C91.1219 240.211 99.3346 237.004 105.75 231.64C113.99 238.497 124.553 242.561 136.057 242.561C148.915 242.561 160.557 237.474 169.129 229.152C181.406 237.639 196.283 242.561 212.321 242.561C226.949 242.561 240.61 238.441 252.251 231.253C257.533 237.861 265.635 242.091 274.732 242.091C290.632 242.091 303.518 229.207 303.518 213.31C303.518 201.311 296.191 191.053 285.766 186.74L285.738 186.768Z" fill="#5A5365"/>
<path d="M398.282 174.465C397.453 174.465 396.623 174.465 395.794 174.548C391.342 161.83 379.23 152.734 365.017 152.734C360.786 152.734 356.721 153.535 353.016 155.028C348.591 142.891 336.922 134.155 323.234 134.155C309.547 134.155 298.513 142.421 293.84 154.088C292.264 153.812 290.688 153.674 289.056 153.674C274.65 153.674 262.842 164.567 261.376 178.557C259.358 178.142 257.284 177.948 255.155 177.948C237.789 177.948 223.742 192.021 223.742 209.356C223.742 226.691 237.817 240.764 255.155 240.764H255.957C259.026 253.454 270.446 262.854 284.079 262.854C294.642 262.854 303.85 257.214 308.911 248.781C315.796 260.559 328.599 268.466 343.199 268.466C359.403 268.466 373.34 258.762 379.534 244.855C385.037 248.035 391.452 249.86 398.282 249.86C419.105 249.86 435.972 232.995 435.972 212.148C435.972 191.302 419.077 174.465 398.282 174.465Z" fill="#534C5D"/>
<path d="M367.423 98.1574C365.708 98.1574 363.994 98.268 362.335 98.4892C356.002 79.8271 338.388 66.3627 317.566 66.3627C307.97 66.3627 299.011 69.2657 291.545 74.187C286.429 60.1697 272.99 50.1613 257.201 50.1613C239.393 50.1613 224.571 62.8791 221.308 79.7718C216.303 76.0117 210.054 73.8276 203.307 73.8276C187.822 73.8276 175.102 85.4119 173.304 100.369H173.055C149.026 100.369 129.531 119.861 129.531 143.914C129.531 167.968 149.026 187.431 173.055 187.431C180.743 187.431 187.932 185.468 194.182 181.957C196.421 197.053 209.446 208.61 225.18 208.61C237.596 208.61 248.352 201.393 253.413 190.915C262.98 204.988 279.184 214.222 297.546 214.222C321.188 214.222 341.264 198.822 348.232 177.451C353.984 180.437 360.51 182.095 367.45 182.095C390.623 182.095 409.426 163.295 409.426 140.154C409.426 117.013 390.65 98.1574 367.45 98.1574H367.423Z" fill="#686075"/>
<path d="M231.512 201.615C227.89 201.449 224.378 201.946 221.143 202.997C216.884 181.377 198.357 164.539 175.323 163.378C152.98 162.189 133.347 176.096 126.268 196.168C107.381 195.2 91.2602 209.715 90.2924 228.571C89.3245 247.454 103.842 263.545 122.701 264.568C132.434 265.066 141.449 261.416 148.03 255.223C154.584 259.066 162.105 261.416 170.235 261.831C184.697 262.605 198.053 257.02 207.565 247.565C212.487 253.841 219.981 258.099 228.553 258.541C244.287 259.37 257.671 247.288 258.473 231.557C259.275 215.853 247.219 202.444 231.512 201.642V201.615Z" fill="#6E667D"/>
<path d="M260.685 376.817C260.685 387.932 251.643 397 240.499 397C229.355 397 220.341 387.959 220.341 376.817C220.341 360.091 240.499 331.282 240.499 331.282C240.499 331.282 260.685 360.118 260.685 376.817Z" fill="#C0BACF"/>
<path d="M204.192 318.785C204.192 327.024 197.528 333.715 189.287 333.715C181.047 333.715 174.383 327.024 174.383 318.785C174.383 306.482 189.287 285.138 189.287 285.138C189.287 285.138 204.192 306.454 204.192 318.785Z" fill="#C0BACF"/>
<path d="M88.7715 299.791C88.7715 306.371 83.4346 311.707 76.8534 311.707C70.2722 311.707 64.963 306.371 64.963 299.791C64.963 289.976 76.8534 272.973 76.8534 272.973C76.8534 272.973 88.7715 289.976 88.7715 299.791Z" fill="#C0BACF"/>
<path d="M412.247 253.675C412.247 259.84 407.269 264.817 401.103 264.817C394.936 264.817 389.959 259.84 389.959 253.675C389.959 244.468 401.103 228.516 401.103 228.516C401.103 228.516 412.247 244.468 412.247 253.675Z" fill="#C0BACF"/>
<path d="M387.857 355.612C387.857 361.777 382.88 366.754 376.714 366.754C370.547 366.754 365.57 361.777 365.57 355.612C365.57 346.405 376.714 330.452 376.714 330.452C376.714 330.452 387.857 346.405 387.857 355.612Z" fill="#C0BACF"/>
<path d="M350.389 320.61C350.389 330.48 342.425 338.415 332.553 338.415C322.681 338.415 314.718 330.452 314.718 320.61C314.718 305.846 332.553 280.327 332.553 280.327C332.553 280.327 350.389 305.846 350.389 320.61Z" fill="#C0BACF"/>
</svg>
