<svg width="450" height="446" viewBox="0 0 450 446" fill="none" xmlns="http://www.w3.org/2000/svg">
<path d="M392.971 226.178C389.507 214.059 382.145 203.482 372.348 195.989C374.838 189.335 376.354 182.194 376.679 174.728C378.302 136.64 348.721 104.396 310.588 102.773C281.44 101.528 255.756 118.543 244.524 143.619C242.521 143.376 240.491 143.186 238.434 143.105C214.347 142.077 192.588 153.276 179.11 171.184C175.321 169.723 171.234 168.803 166.931 168.587C146.2 167.721 128.689 183.79 127.769 204.483C127.634 207.919 127.985 211.219 128.716 214.411C121.165 215.655 114.67 220.146 110.8 226.503C104.521 218.036 94.6423 212.382 83.3024 211.895C67.5781 211.219 53.8024 220.66 48.2271 234.483C47.5505 234.401 46.8198 234.32 46.1161 234.293C31.7992 233.644 19.6473 244.789 19.0248 259.153C18.4024 273.463 29.5528 285.609 43.8698 286.204C51.2583 286.528 58.0515 283.742 62.9771 278.981C67.957 282.011 73.7758 283.877 80.0276 284.175C85.684 296.699 97.9712 305.68 112.64 306.275C127.85 306.952 141.301 298.458 147.769 285.69C152.073 287.637 156.782 288.882 161.789 289.071C163.358 289.152 164.928 289.071 166.444 288.963C175.24 300.73 189.069 308.602 204.875 309.278C220.301 309.9 234.402 303.597 244.172 293.129C250.18 304.625 261.953 312.713 275.864 313.309C290.641 313.958 303.74 305.924 310.398 293.805C317.651 297.565 325.852 299.837 334.594 300.243C353.62 301.027 370.887 292.615 382.091 278.927C384.717 279.874 387.531 280.469 390.481 280.631C405.502 281.253 418.222 269.567 418.845 254.581C419.494 239.595 407.884 226.935 392.944 226.205L392.971 226.178Z" fill="#10609E"/>
<path d="M283.902 187.631C285.689 181.274 286.636 174.592 286.636 167.667C286.636 126.469 253.239 93.0613 211.993 93.0613C177.107 93.0613 147.823 117.001 139.623 149.354C138.892 149.3 138.134 149.273 137.377 149.273C121.057 149.273 106.713 157.686 98.4312 170.372C94.1551 168.614 89.5001 167.667 84.6014 167.667C64.628 167.667 48.4707 183.817 48.4707 203.78C48.4707 223.743 64.628 239.92 84.6014 239.92C93.3973 239.92 101.435 236.755 107.714 231.588C115.752 238.243 126.091 242.246 137.377 242.246C149.962 242.246 161.356 237.269 169.745 229.127C181.762 237.431 196.295 242.246 211.993 242.246C226.337 242.246 239.734 238.216 251.101 231.209C256.27 237.675 264.2 241.813 273.104 241.813C288.666 241.813 301.278 229.208 301.278 213.654C301.278 201.914 294.106 191.878 283.902 187.631Z" fill="#076AB8"/>
<path d="M324.471 215.358L339.221 308.818L380.738 281.226L378.194 390.322L358.248 322.668L318.409 349.313L273.672 215.358H324.471Z" fill="url(#paint0_linear_237_3039)"/>
<path d="M394.025 175.593C393.24 175.593 392.401 175.647 391.589 175.674C387.232 163.258 375.378 154.331 361.467 154.331C357.326 154.331 353.347 155.17 349.721 156.603C345.418 144.674 333.997 136.18 320.6 136.18C307.203 136.18 296.377 144.241 291.83 155.657C290.288 155.413 288.718 155.251 287.121 155.251C273.048 155.251 261.464 165.909 260.03 179.597C258.081 179.245 256.052 179.002 253.968 179.002C236.971 179.002 223.223 192.77 223.223 209.731C223.223 226.692 236.971 240.461 253.968 240.461H254.752C257.757 252.877 268.934 262.074 282.277 262.074C292.588 262.074 301.628 256.556 306.58 248.306C313.319 259.829 325.85 267.566 340.167 267.566C356.027 267.566 369.64 258.071 375.675 244.464C381.088 247.575 387.34 249.361 394.052 249.361C414.458 249.361 430.941 232.833 430.941 212.463C430.941 192.094 414.431 175.593 394.052 175.593H394.025Z" fill="#0365B1"/>
<path d="M363.822 100.96C362.144 100.96 360.493 101.068 358.842 101.285C352.644 82.9984 335.404 69.8788 315.025 69.8788C305.634 69.8788 296.865 72.665 289.558 77.5071C284.551 63.7924 271.397 54 255.944 54C238.514 54 223.981 66.4433 220.814 82.9714C215.889 79.2925 209.772 77.1554 203.196 77.1554C188.067 77.1554 175.563 88.4897 173.831 103.151C173.75 103.151 173.669 103.124 173.587 103.124C150.069 103.124 130.988 122.195 130.988 145.729C130.988 169.263 150.069 188.334 173.587 188.334C181.084 188.334 188.148 186.386 194.264 182.951C196.484 197.721 209.204 209.055 224.603 209.055C236.782 209.055 247.283 201.995 252.236 191.742C261.627 205.511 277.433 214.573 295.403 214.573C318.57 214.573 338.219 199.506 345.012 178.596C350.641 181.517 357.056 183.14 363.822 183.14C386.529 183.14 404.932 164.773 404.932 142.077C404.932 119.382 386.529 100.987 363.822 100.987V100.96Z" fill="#007FC9"/>
<path d="M230.801 202.157C227.282 201.995 223.845 202.482 220.651 203.509C216.457 182.356 198.351 165.882 175.806 164.719C153.938 163.61 134.723 177.162 127.794 196.801C109.282 195.827 93.5308 210.029 92.5565 228.504C91.6093 247.007 105.791 262.778 124.303 263.724C133.857 264.211 142.652 260.668 149.067 254.581C155.508 258.341 162.869 260.641 170.826 261.046C185.008 261.804 198.053 256.34 207.363 247.088C212.18 253.229 219.515 257.367 227.932 257.827C243.304 258.612 256.43 246.818 257.215 231.426C258.027 216.061 246.2 202.968 230.801 202.157Z" fill="#008CDE"/>
<path d="M141.273 362.514C141.273 370.575 134.777 377.121 126.712 377.121C118.647 377.121 112.098 370.575 112.098 362.514C112.098 350.476 126.712 329.593 126.712 329.593C126.712 329.593 141.273 350.449 141.273 362.514Z" fill="#61D7FF"/>
<path d="M92.6656 301.325C92.6656 307.763 87.4692 312.93 81.028 312.93C74.5867 312.93 69.3633 307.736 69.3633 301.325C69.3633 291.668 81.028 275.032 81.028 275.032C81.028 275.032 92.6656 291.668 92.6656 301.325Z" fill="#61D7FF"/>
<path d="M408.181 256.042C408.181 262.074 403.282 266.944 397.274 266.944C391.266 266.944 386.367 262.074 386.367 256.042C386.367 246.98 397.274 231.399 397.274 231.399C397.274 231.399 408.181 247.007 408.181 256.042Z" fill="#61D7FF"/>
<path d="M282.062 380.962C282.062 386.995 277.19 391.864 271.155 391.864C265.12 391.864 260.248 386.995 260.248 380.962C260.248 371.954 271.155 356.346 271.155 356.346C271.155 356.346 282.062 371.954 282.062 380.962Z" fill="#61D7FF"/>
<path d="M228.718 340.494C228.718 350.152 220.896 357.969 211.261 357.969C201.626 357.969 193.805 350.152 193.805 340.494C193.805 326.049 211.261 301.136 211.261 301.136C211.261 301.136 228.718 326.076 228.718 340.494Z" fill="#61D7FF"/>
<defs>
<linearGradient id="paint0_linear_237_3039" x1="363.966" y1="353.295" x2="317.698" y2="229.357" gradientUnits="userSpaceOnUse">
<stop stop-color="#FFD45C"/>
<stop offset="1" stop-color="#FF9D00"/>
</linearGradient>
</defs>
</svg>
