<svg width="450" height="446" viewBox="0 0 450 446" fill="none" xmlns="http://www.w3.org/2000/svg">
<g clip-path="url(#clip0_237_3468)">
<path d="M392.017 218.093C388.561 205.983 381.245 195.44 371.445 187.951C373.902 181.301 375.413 174.165 375.737 166.676C377.384 128.614 347.877 96.417 309.838 94.795C280.735 93.5244 255.142 110.555 243.938 135.615C241.941 135.372 239.916 135.183 237.864 135.047C213.837 134.047 192.104 145.266 178.687 163.162C174.907 161.675 170.831 160.729 166.538 160.567C145.886 159.648 128.392 175.705 127.501 196.44C127.366 199.819 127.717 203.144 128.446 206.334C120.913 207.605 114.434 212.119 110.574 218.445C104.31 209.984 94.4565 204.334 83.1178 203.847C67.4595 203.171 53.7181 212.606 48.1297 226.366C47.4278 226.285 46.7259 226.203 46.024 226.176C31.7156 225.582 19.621 236.692 19.0001 251.02C18.4061 265.375 29.5019 277.458 43.8102 278.08C51.1804 278.405 57.9566 275.566 62.8701 270.862C67.8645 273.89 73.6418 275.728 79.8781 276.053C85.5205 288.542 97.8041 297.517 112.409 298.139C127.582 298.788 140.999 290.272 147.451 277.567C151.717 279.513 156.441 280.729 161.436 280.946C162.975 280.973 164.54 280.946 166.079 280.784C174.853 292.543 188.622 300.41 204.415 301.085C219.803 301.761 233.896 295.436 243.641 284.947C249.635 296.463 261.378 304.519 275.228 305.113C289.968 305.762 303.062 297.733 309.676 285.622C316.938 289.407 325.091 291.678 333.811 292.029C352.79 292.867 370.014 284.406 381.218 270.727C383.809 271.727 386.644 272.322 389.56 272.43C404.543 273.079 417.259 261.428 417.88 246.397C418.527 231.448 406.946 218.769 392.017 218.039V218.093Z" fill="#EEF7FA"/>
<path d="M393.096 219.175C389.641 207.064 382.325 196.521 372.525 189.033C374.981 182.383 376.493 175.246 376.817 167.731C378.464 129.668 348.956 97.4713 310.918 95.8493C281.815 94.5787 256.195 111.61 245.018 136.669C243.02 136.399 241.023 136.237 238.971 136.102C214.944 135.102 193.211 146.32 179.794 164.216C176.014 162.757 171.965 161.783 167.645 161.594C146.992 160.729 129.498 176.787 128.607 197.467C128.472 200.9 128.823 204.198 129.552 207.388C122.02 208.632 115.541 213.173 111.68 219.499C105.417 211.038 95.5633 205.388 84.2245 204.874C68.5663 204.225 54.8249 213.687 49.2635 227.447C48.5616 227.366 47.8597 227.285 47.1578 227.258C32.8494 226.663 20.7548 237.774 20.1339 252.101C19.5399 266.402 30.6357 278.54 44.944 279.162C52.3142 279.486 59.0904 276.647 64.0039 271.944C68.9983 274.971 74.7756 276.81 81.0119 277.134C86.6543 289.623 98.9379 298.571 113.543 299.22C128.715 299.869 142.133 291.354 148.585 278.648C152.851 280.594 157.575 281.784 162.57 282C164.135 282.081 165.674 282.027 167.213 281.892C175.987 293.651 189.782 301.491 205.549 302.194C220.937 302.87 235.029 296.544 244.748 286.055C250.769 297.544 262.512 305.627 276.362 306.222C291.102 306.871 304.195 298.842 310.81 286.731C318.072 290.516 326.225 292.786 334.945 293.138C353.924 293.976 371.148 285.514 382.352 271.836C384.943 272.836 387.751 273.431 390.694 273.539C405.677 274.187 418.392 262.536 419.013 247.506C419.661 232.556 408.08 219.878 393.15 219.148L393.096 219.175Z" fill="#0568B5"/>
<path d="M191.052 293.489C191.052 293.489 190.89 293.57 190.809 293.597L113.732 329.362C113.246 329.551 112.733 329.605 112.221 329.389C111.735 329.227 111.357 328.876 111.114 328.389C110.709 327.47 111.006 326.389 111.843 325.875C111.924 325.848 112.005 325.794 112.113 325.74L189.162 289.975C190.161 289.542 191.321 289.948 191.78 290.921C192.185 291.786 191.888 292.867 191.052 293.435V293.489Z" fill="white"/>
<path d="M186.624 302.41C186.624 302.41 186.435 302.491 186.354 302.518C185.355 303.005 184.194 302.545 183.735 301.572L178.525 290.245C178.12 289.38 178.417 288.299 179.227 287.758C179.308 287.731 179.416 287.65 179.497 287.596C180.496 287.163 181.656 287.596 182.115 288.596L187.326 299.869C187.758 300.734 187.461 301.815 186.624 302.383V302.41Z" fill="white"/>
<path d="M123.667 331.606C123.667 331.606 123.478 331.687 123.397 331.714C122.398 332.201 121.237 331.741 120.778 330.768L115.568 319.495C115.163 318.63 115.46 317.549 116.27 316.981C116.351 316.927 116.459 316.9 116.54 316.873C117.539 316.386 118.7 316.819 119.159 317.819L124.396 329.092C124.801 330.011 124.504 331.092 123.667 331.606Z" fill="white"/>
<path d="M170.372 349.934C170.372 349.934 170.21 350.016 170.102 350.07C169.616 350.313 169.076 350.313 168.59 350.151C168.104 349.961 167.726 349.583 167.483 349.123L131.82 271.998C131.388 271.079 131.712 270.051 132.522 269.484C132.603 269.43 132.684 269.402 132.765 269.375C133.278 269.132 133.791 269.105 134.304 269.294C134.79 269.484 135.195 269.862 135.411 270.322L171.101 347.474C171.533 348.367 171.209 349.421 170.399 349.989L170.372 349.934Z" fill="white"/>
<path d="M172.748 340.257C172.748 340.257 172.586 340.338 172.505 340.365L161.22 345.636C160.734 345.825 160.194 345.879 159.708 345.663C159.222 345.474 158.817 345.096 158.574 344.636C158.169 343.771 158.493 342.69 159.303 342.176C159.384 342.149 159.465 342.068 159.573 342.014L170.858 336.796C171.344 336.553 171.884 336.553 172.37 336.715C172.883 336.904 173.261 337.283 173.477 337.742C173.881 338.662 173.585 339.689 172.748 340.257Z" fill="white"/>
<path d="M143.591 277.215C143.591 277.215 143.429 277.296 143.321 277.377L132.036 282.595C131.55 282.784 131.01 282.838 130.524 282.649C130.038 282.487 129.66 282.135 129.417 281.649C129.012 280.729 129.309 279.648 130.146 279.134C130.2 279.107 130.308 279.053 130.389 278.972L141.701 273.755C142.16 273.566 142.7 273.512 143.213 273.728C143.699 273.89 144.077 274.241 144.32 274.728C144.725 275.647 144.428 276.674 143.591 277.242V277.215Z" fill="white"/>
<path d="M137.894 351.259C137.894 351.259 137.732 351.367 137.652 351.421C137.166 351.61 136.626 351.665 136.14 351.475C135.627 351.313 135.222 350.962 135.006 350.475C134.79 349.961 134.763 349.421 134.952 348.907L164.189 269.105C164.351 268.7 164.621 268.375 164.972 268.159C165.485 267.807 166.133 267.726 166.754 267.97C167.24 268.132 167.645 268.483 167.861 268.97C168.077 269.457 168.104 269.997 167.915 270.484L138.677 350.34C138.542 350.745 138.272 351.07 137.894 351.313V351.259Z" fill="white"/>
<path d="M146.426 346.123C146.426 346.123 146.264 346.204 146.156 346.231C145.67 346.474 145.13 346.474 144.644 346.312L132.954 342.014C132.468 341.825 132.09 341.446 131.847 340.987C131.658 340.5 131.604 339.986 131.82 339.473C131.955 339.067 132.225 338.77 132.576 338.526C133.089 338.175 133.764 338.094 134.358 338.337L146.048 342.608C146.534 342.798 146.939 343.176 147.155 343.636C147.371 344.122 147.398 344.663 147.209 345.15C147.047 345.555 146.804 345.907 146.426 346.15V346.123Z" fill="white"/>
<path d="M170.318 280.892C170.318 280.892 170.129 280.973 170.048 281.054C169.562 281.243 169.022 281.297 168.536 281.081L156.846 276.783C155.82 276.431 155.307 275.269 155.658 274.268C155.82 273.836 156.09 273.512 156.441 273.268C156.981 272.917 157.629 272.863 158.223 273.079L169.913 277.377C170.399 277.539 170.777 277.891 170.993 278.405C171.236 278.891 171.263 279.405 171.047 279.864C170.912 280.297 170.642 280.621 170.291 280.865L170.318 280.892Z" fill="white"/>
<path d="M192.401 325.983C192.401 325.983 192.239 326.091 192.131 326.145C191.645 326.389 191.105 326.389 190.619 326.172L110.898 296.922C110.412 296.733 110.007 296.355 109.791 295.895C109.575 295.408 109.548 294.868 109.737 294.381C109.899 293.976 110.169 293.624 110.52 293.435C111.06 293.084 111.708 293.003 112.301 293.192L191.996 322.496C192.509 322.658 192.914 323.063 193.13 323.523C193.346 324.01 193.373 324.523 193.184 325.037C193.022 325.442 192.779 325.74 192.401 325.983Z" fill="white"/>
<path d="M117.836 305.249C117.836 305.249 117.647 305.33 117.566 305.357C117.08 305.6 116.567 305.6 116.054 305.438C115.568 305.249 115.19 304.87 114.947 304.411C114.731 303.924 114.704 303.383 114.893 302.897L119.186 291.218C119.348 290.813 119.618 290.461 119.969 290.218C120.509 289.867 121.157 289.813 121.75 290.029C122.236 290.218 122.641 290.597 122.857 291.056C123.073 291.543 123.1 292.056 122.911 292.57L118.619 304.248C118.457 304.654 118.214 305.005 117.863 305.249H117.836Z" fill="white"/>
<path d="M182.925 329.173C182.925 329.173 182.763 329.254 182.682 329.308C182.196 329.551 181.656 329.551 181.171 329.389C180.658 329.173 180.28 328.822 180.064 328.362C179.821 327.875 179.821 327.335 180.01 326.848L184.302 315.17C184.464 314.764 184.707 314.413 185.085 314.17C185.598 313.845 186.273 313.764 186.867 313.98C187.353 314.17 187.731 314.548 187.974 315.008C188.19 315.494 188.217 316.008 188.028 316.521L183.735 328.2C183.6 328.605 183.33 328.957 182.952 329.2L182.925 329.173Z" fill="white"/>
<path d="M162.354 332.687C162.354 332.687 162.219 332.768 162.138 332.795C161.625 333.039 161.004 332.985 160.518 332.714L152.203 328.065L144.293 333.417C143.807 333.742 143.213 333.823 142.673 333.606C142.133 333.417 141.728 332.958 141.593 332.417L139.028 323.199L129.66 321.414C129.093 321.306 128.607 320.928 128.365 320.414C128.122 319.901 128.149 319.306 128.419 318.765L133.089 310.439L127.744 302.545C127.42 302.059 127.339 301.464 127.555 300.896C127.663 300.545 127.933 300.247 128.257 300.031C128.419 299.95 128.581 299.869 128.742 299.842L137.921 297.247L139.73 287.866C139.838 287.38 140.108 287.001 140.513 286.704C140.594 286.65 140.648 286.623 140.729 286.569C141.242 286.325 141.863 286.325 142.349 286.623L150.664 291.326C155.937 287.776 158.583 286.001 158.601 286.001C159.087 285.649 159.654 285.595 160.194 285.785C160.734 286.001 161.139 286.433 161.301 286.974L163.892 296.138L173.233 297.977C173.8 298.085 174.259 298.463 174.502 298.977C174.745 299.49 174.718 300.085 174.448 300.599L169.778 308.898L174.961 316.63C174.961 316.63 175.204 316.9 175.258 317.062C175.636 317.873 175.366 318.819 174.637 319.306C174.556 319.36 174.475 319.387 174.394 319.414L174.34 319.468C174.34 319.468 174.205 319.495 174.124 319.549L164.918 322.144L163.11 331.498C163.002 331.984 162.732 332.363 162.327 332.66L162.354 332.687ZM151.123 324.469C151.123 324.469 151.285 324.388 151.366 324.361C151.879 324.118 152.473 324.118 153.013 324.415L160.113 328.443L161.652 320.441C161.76 319.955 162.03 319.522 162.435 319.279C162.597 319.171 162.759 319.063 162.921 319.036L170.804 316.846L166.214 310.06C165.863 309.493 165.809 308.736 166.133 308.195L170.129 301.058L162.111 299.49C161.463 299.382 160.923 298.842 160.761 298.22L158.547 290.326L151.771 294.922C151.204 295.327 150.502 295.327 149.908 295.003L142.808 291.002L141.269 299.004C141.161 299.49 140.891 299.896 140.486 300.166C140.324 300.274 140.162 300.329 140 300.41L132.117 302.599L136.707 309.385C137.085 309.952 137.139 310.655 136.788 311.25L132.792 318.387L140.81 319.955C141.458 320.063 141.998 320.603 142.187 321.225L144.401 329.092L151.177 324.496L151.123 324.469Z" fill="white"/>
<path d="M175.42 332.39C175.42 332.39 175.258 332.471 175.204 332.498C174.88 332.66 174.556 332.687 174.232 332.66L161.355 331.092L154.201 341.933C154.066 342.122 153.904 342.338 153.715 342.446C153.445 342.609 153.121 342.717 152.797 342.717C152.23 342.771 151.69 342.473 151.339 342.041L143.348 331.822L130.659 334.417C130.092 334.526 129.498 334.363 129.093 333.985C128.688 333.579 128.472 333.039 128.526 332.471L130.065 319.603L119.24 312.439C118.781 312.115 118.484 311.601 118.457 311.007C118.43 310.439 118.673 309.898 119.105 309.574L129.309 301.518L126.691 288.812C126.583 288.245 126.745 287.65 127.123 287.244C127.231 287.136 127.339 287.055 127.447 286.974C127.798 286.731 128.23 286.623 128.634 286.704L141.539 288.245L148.693 277.404C148.828 277.215 148.99 276.999 149.179 276.891C149.449 276.702 149.746 276.62 150.097 276.62C150.664 276.593 151.204 276.81 151.555 277.296L159.546 287.515L172.261 284.92C172.801 284.811 173.395 284.974 173.827 285.352C174.232 285.704 174.448 286.298 174.367 286.866L172.828 299.734L183.654 306.925C184.14 307.249 184.41 307.763 184.464 308.33C184.464 308.925 184.221 309.439 183.789 309.817L173.584 317.873L176.203 330.606C176.311 331.173 176.149 331.714 175.771 332.147C175.636 332.255 175.555 332.363 175.447 332.417L175.42 332.39ZM159.492 327.74C159.843 327.497 160.275 327.416 160.68 327.47L172.207 328.876L169.886 317.468C169.751 316.819 169.994 316.143 170.534 315.71L179.659 308.52L169.967 302.113C169.4 301.761 169.103 301.113 169.184 300.437L170.588 288.921L159.195 291.245C158.547 291.354 157.872 291.137 157.44 290.597L150.286 281.459L143.888 291.137C143.753 291.326 143.591 291.489 143.402 291.651C143.051 291.84 142.619 291.975 142.214 291.894L130.686 290.543L133.008 301.896C133.143 302.572 132.9 303.248 132.36 303.681L123.235 310.844L132.927 317.224C133.494 317.63 133.791 318.252 133.71 318.927L132.333 330.444L143.699 328.119C144.347 327.956 145.022 328.227 145.454 328.767L152.635 337.905L159.033 328.227C159.141 328.038 159.33 327.875 159.519 327.713L159.492 327.74Z" fill="white"/>
<path d="M192.077 293.489C192.077 293.489 191.888 293.57 191.807 293.597L114.758 329.362C114.272 329.551 113.732 329.605 113.246 329.389C112.733 329.227 112.355 328.876 112.14 328.389C111.735 327.47 112.032 326.389 112.841 325.875C112.922 325.848 113.003 325.794 113.084 325.74L190.134 289.975C191.133 289.542 192.293 289.948 192.752 290.921C193.157 291.786 192.887 292.867 192.05 293.435L192.077 293.489Z" fill="#E1F0FA"/>
<path d="M187.623 302.41C187.623 302.41 187.434 302.491 187.353 302.518C186.354 303.005 185.193 302.545 184.734 301.572L179.524 290.245C179.092 289.38 179.416 288.299 180.226 287.758C180.307 287.731 180.388 287.65 180.469 287.596C181.468 287.163 182.628 287.596 183.087 288.596L188.325 299.869C188.73 300.734 188.433 301.815 187.623 302.383V302.41Z" fill="#E1F0FA"/>
<path d="M124.693 331.606C124.693 331.606 124.531 331.687 124.423 331.714C123.451 332.201 122.263 331.741 121.804 330.768L116.594 319.495C116.189 318.63 116.459 317.549 117.323 316.981C117.404 316.927 117.485 316.9 117.566 316.873C118.565 316.386 119.753 316.819 120.184 317.819L125.422 329.092C125.827 330.011 125.53 331.092 124.72 331.606H124.693Z" fill="#E1F0FA"/>
<path d="M171.398 349.934C171.398 349.934 171.209 350.016 171.128 350.07C170.669 350.313 170.129 350.313 169.643 350.151C169.157 349.961 168.752 349.583 168.536 349.123L132.819 271.998C132.414 271.079 132.711 270.051 133.548 269.484C133.629 269.43 133.71 269.402 133.818 269.375C134.304 269.132 134.844 269.105 135.33 269.294C135.816 269.484 136.221 269.862 136.437 270.322L172.153 347.474C172.558 348.367 172.234 349.421 171.425 349.989L171.398 349.934Z" fill="#E1F0FA"/>
<path d="M173.746 340.257C173.746 340.257 173.584 340.338 173.476 340.365L162.192 345.636C161.706 345.825 161.166 345.879 160.68 345.663C160.167 345.474 159.789 345.096 159.573 344.636C159.141 343.771 159.465 342.69 160.275 342.176C160.356 342.149 160.437 342.068 160.545 342.014L171.803 336.796C172.289 336.553 172.829 336.553 173.314 336.715C173.827 336.904 174.205 337.283 174.421 337.742C174.826 338.662 174.529 339.689 173.719 340.257H173.746Z" fill="#E1F0FA"/>
<path d="M144.59 277.215C144.59 277.215 144.428 277.296 144.347 277.377L133.035 282.595C132.549 282.784 132.036 282.838 131.523 282.649C131.037 282.487 130.659 282.135 130.416 281.649C130.011 280.729 130.308 279.648 131.145 279.134C131.226 279.107 131.307 279.053 131.415 278.972L142.7 273.755C143.186 273.566 143.726 273.512 144.212 273.728C144.725 273.89 145.103 274.241 145.319 274.728C145.724 275.647 145.427 276.674 144.59 277.242V277.215Z" fill="#E1F0FA"/>
<path d="M138.92 351.259C138.92 351.259 138.731 351.367 138.65 351.421C138.164 351.61 137.624 351.665 137.139 351.475C136.626 351.313 136.248 350.962 136.032 350.475C135.789 349.961 135.762 349.421 135.951 348.907L165.215 269.105C165.35 268.7 165.62 268.375 165.971 268.159C166.511 267.807 167.159 267.726 167.753 267.97C168.239 268.132 168.617 268.483 168.86 268.97C169.049 269.457 169.103 269.997 168.887 270.484L139.649 350.34C139.514 350.745 139.244 351.07 138.893 351.313L138.92 351.259Z" fill="#E1F0FA"/>
<path d="M147.424 346.123C147.424 346.123 147.262 346.204 147.181 346.231C146.695 346.474 146.155 346.474 145.67 346.312L133.98 342.014C133.494 341.825 133.089 341.446 132.873 340.987C132.657 340.5 132.63 339.986 132.819 339.473C132.954 339.067 133.224 338.77 133.575 338.526C134.115 338.175 134.763 338.094 135.357 338.337L147.046 342.608C147.559 342.798 147.937 343.176 148.153 343.636C148.369 344.122 148.396 344.663 148.207 345.15C148.045 345.555 147.802 345.907 147.424 346.15V346.123Z" fill="#E1F0FA"/>
<path d="M171.317 280.892C171.317 280.892 171.155 280.973 171.074 281.054C170.588 281.243 170.048 281.297 169.562 281.081L157.872 276.783C156.846 276.431 156.306 275.269 156.684 274.268C156.819 273.836 157.089 273.512 157.44 273.268C157.98 272.917 158.628 272.863 159.222 273.079L170.885 277.377C171.371 277.539 171.776 277.891 171.992 278.405C172.207 278.891 172.234 279.405 172.046 279.864C171.911 280.297 171.641 280.621 171.263 280.865L171.317 280.892Z" fill="#E1F0FA"/>
<path d="M193.4 325.983C193.4 325.983 193.238 326.091 193.13 326.145C192.617 326.389 192.104 326.389 191.591 326.172L111.896 296.922C111.384 296.733 111.006 296.355 110.79 295.895C110.547 295.408 110.547 294.868 110.709 294.381C110.871 293.976 111.141 293.624 111.491 293.435C112.004 293.084 112.652 293.003 113.246 293.192L192.968 322.496C193.481 322.658 193.859 323.063 194.075 323.523C194.291 324.01 194.318 324.523 194.129 325.037C193.994 325.442 193.724 325.74 193.373 325.983H193.4Z" fill="#E1F0FA"/>
<path d="M118.835 305.249C118.835 305.249 118.673 305.33 118.565 305.357C118.079 305.6 117.539 305.6 117.053 305.438C116.54 305.249 116.162 304.87 115.946 304.411C115.73 303.924 115.703 303.383 115.892 302.897L120.158 291.218C120.293 290.813 120.589 290.461 120.94 290.218C121.453 289.867 122.101 289.813 122.695 290.029C123.208 290.218 123.613 290.597 123.829 291.056C124.045 291.543 124.072 292.056 123.883 292.57L119.591 304.248C119.456 304.654 119.186 305.005 118.835 305.249Z" fill="#E1F0FA"/>
<path d="M183.951 329.173C183.951 329.173 183.789 329.254 183.681 329.308C183.195 329.551 182.683 329.551 182.17 329.389C181.684 329.173 181.279 328.822 181.063 328.362C180.847 327.875 180.82 327.335 181.009 326.848L185.274 315.17C185.436 314.764 185.706 314.413 186.057 314.17C186.597 313.845 187.218 313.764 187.839 313.98C188.325 314.17 188.73 314.548 188.946 315.008C189.162 315.494 189.189 316.008 189 316.521L184.707 328.2C184.545 328.605 184.275 328.957 183.924 329.2L183.951 329.173Z" fill="#E1F0FA"/>
<path d="M163.38 332.687C163.38 332.687 163.245 332.768 163.164 332.795C162.651 333.039 162.03 332.985 161.544 332.714L153.229 328.065L145.346 333.417C144.833 333.742 144.239 333.823 143.726 333.606C143.186 333.417 142.781 332.958 142.619 332.417L140.054 323.199L130.713 321.414C130.146 321.306 129.687 320.928 129.417 320.414C129.175 319.901 129.202 319.306 129.498 318.765L134.169 310.439L128.824 302.545C128.5 302.059 128.446 301.464 128.635 300.896C128.77 300.545 129.013 300.247 129.336 300.031C129.498 299.95 129.66 299.869 129.822 299.842L139.001 297.247L140.837 287.866C140.918 287.38 141.188 287.001 141.593 286.704C141.674 286.65 141.755 286.623 141.836 286.569C142.349 286.325 142.943 286.325 143.456 286.623L151.744 291.326L159.654 286.001C160.14 285.649 160.707 285.595 161.247 285.785C161.787 286.001 162.192 286.433 162.354 286.974L164.918 296.138L174.259 297.977C174.826 298.085 175.285 298.463 175.555 298.977C175.798 299.49 175.744 300.085 175.474 300.599L170.804 308.898L175.987 316.63C175.987 316.63 176.203 316.9 176.284 317.062C176.635 317.873 176.365 318.819 175.636 319.306C175.555 319.36 175.474 319.387 175.393 319.414L175.339 319.468C175.339 319.468 175.204 319.495 175.123 319.549L165.917 322.144L164.136 331.498C164.028 331.984 163.758 332.363 163.353 332.66L163.38 332.687ZM152.122 324.469C152.122 324.469 152.284 324.388 152.365 324.361C152.878 324.118 153.499 324.118 154.012 324.415L161.139 328.443L162.705 320.441C162.786 319.955 163.056 319.522 163.461 319.279C163.623 319.171 163.785 319.063 163.974 319.036L171.83 316.846L167.24 310.06C166.889 309.493 166.835 308.736 167.186 308.195L171.182 301.058L163.164 299.49C162.516 299.382 161.976 298.842 161.787 298.22L159.573 290.326L152.797 294.922C152.23 295.327 151.501 295.327 150.934 295.003L143.834 291.002L142.268 299.004C142.16 299.49 141.863 299.896 141.485 300.166C141.323 300.274 141.161 300.329 140.999 300.41L133.116 302.599L137.706 309.385C138.11 309.952 138.11 310.655 137.787 311.25L133.791 318.387L141.809 319.955C142.457 320.063 142.997 320.603 143.186 321.225L145.4 329.092L152.176 324.496L152.122 324.469Z" fill="#E1F0FA"/>
<path d="M176.446 332.39C176.446 332.39 176.284 332.471 176.203 332.498C175.906 332.66 175.555 332.687 175.231 332.66L162.327 331.092L155.2 341.933C155.038 342.122 154.876 342.338 154.687 342.446C154.417 342.609 154.12 342.717 153.796 342.717C153.229 342.771 152.662 342.473 152.311 342.041L144.32 331.822L131.604 334.417C131.037 334.526 130.443 334.363 130.039 333.985C129.634 333.579 129.418 333.039 129.472 332.471L131.037 319.603L120.212 312.439C119.726 312.115 119.429 311.601 119.429 311.007C119.429 310.439 119.645 309.898 120.104 309.574L130.308 301.518L127.69 288.812C127.582 288.245 127.717 287.65 128.122 287.244C128.23 287.136 128.338 287.055 128.446 286.974C128.77 286.731 129.202 286.623 129.634 286.704L142.484 288.245L149.638 277.404C149.746 277.215 149.935 276.999 150.151 276.891C150.421 276.702 150.718 276.62 151.042 276.62C151.609 276.593 152.149 276.81 152.5 277.296L160.518 287.515L173.234 284.92C173.801 284.811 174.367 284.974 174.799 285.352C175.231 285.704 175.447 286.298 175.366 286.866L173.801 299.734L184.626 306.925C185.112 307.249 185.409 307.763 185.409 308.33C185.409 308.925 185.166 309.439 184.734 309.817L174.529 317.873L177.121 330.606C177.229 331.173 177.067 331.714 176.689 332.147C176.581 332.255 176.5 332.363 176.365 332.417L176.446 332.39ZM160.518 327.74C160.842 327.497 161.274 327.416 161.706 327.47L173.234 328.876L170.939 317.468C170.777 316.819 171.047 316.143 171.587 315.71L180.712 308.52L171.02 302.113C170.48 301.761 170.156 301.113 170.237 300.437L171.641 288.921L160.248 291.245C159.6 291.354 158.925 291.137 158.493 290.597L151.339 281.459L144.941 291.137C144.806 291.326 144.617 291.489 144.428 291.651C144.104 291.84 143.645 291.975 143.267 291.894L131.712 290.543L134.061 301.896C134.169 302.572 133.953 303.248 133.413 303.681L124.288 310.844L133.98 317.224C134.547 317.63 134.844 318.252 134.763 318.927L133.386 330.444L144.725 328.119C145.4 327.956 146.075 328.227 146.48 328.767L153.661 337.905L160.059 328.227C160.194 328.038 160.383 327.875 160.572 327.713L160.518 327.74Z" fill="#E1F0FA"/>
<path d="M269.046 355.368C269.046 355.368 268.938 355.449 268.857 355.476L209.706 382.915C209.328 383.104 208.923 383.104 208.518 382.942C208.141 382.834 207.817 382.537 207.655 382.185C207.331 381.509 207.574 380.671 208.195 380.266C208.249 380.239 208.33 380.185 208.384 380.158L267.561 352.692C268.317 352.368 269.235 352.692 269.586 353.449C269.909 354.125 269.667 354.963 269.046 355.368Z" fill="white"/>
<path d="M265.617 362.235C265.617 362.235 265.509 362.316 265.428 362.343C264.672 362.694 263.754 362.343 263.403 361.586L259.408 352.908C259.084 352.232 259.327 351.421 259.921 350.989C260.002 350.962 260.056 350.908 260.11 350.908C260.893 350.556 261.783 350.881 262.134 351.638L266.157 360.315C266.481 360.991 266.238 361.829 265.59 362.235H265.617Z" fill="white"/>
<path d="M217.292 384.618C217.292 384.618 217.184 384.699 217.103 384.726C216.348 385.078 215.43 384.753 215.106 383.969L211.11 375.319C210.786 374.643 211.029 373.805 211.623 373.399C211.704 373.372 211.758 373.318 211.812 373.291C212.595 372.94 213.486 373.291 213.837 374.048L217.859 382.699C218.183 383.375 217.94 384.213 217.292 384.618Z" fill="white"/>
<path d="M253.171 398.702C253.171 398.702 253.063 398.811 252.982 398.811C252.631 398.973 252.2 399 251.822 398.865C251.417 398.73 251.147 398.459 250.958 398.108L223.583 338.824C223.259 338.148 223.502 337.364 224.123 336.905C224.177 336.85 224.258 336.823 224.312 336.796C224.663 336.634 225.095 336.634 225.473 336.742C225.851 336.905 226.175 337.175 226.337 337.526L253.765 396.756C254.062 397.459 253.846 398.27 253.198 398.675L253.171 398.702Z" fill="white"/>
<path d="M255.007 391.295C255.007 391.295 254.872 391.376 254.818 391.403L246.152 395.377C245.801 395.567 245.369 395.567 244.991 395.458C244.613 395.296 244.316 395.026 244.127 394.674C243.804 393.999 244.046 393.161 244.667 392.755C244.748 392.728 244.775 392.674 244.856 392.647L253.522 388.619C253.873 388.457 254.305 388.457 254.683 388.565C255.061 388.727 255.358 388.998 255.547 389.349C255.844 390.025 255.628 390.863 255.007 391.268V391.295Z" fill="white"/>
<path d="M232.6 342.879C232.6 342.879 232.465 342.96 232.411 342.987L223.745 346.988C223.367 347.177 222.962 347.177 222.557 347.069C222.179 346.907 221.855 346.636 221.693 346.285C221.369 345.609 221.612 344.771 222.26 344.366C222.314 344.312 222.368 344.285 222.449 344.23L231.088 340.203C231.466 340.04 231.871 340.04 232.276 340.175C232.654 340.338 232.978 340.608 233.14 340.959C233.464 341.635 233.221 342.473 232.6 342.879Z" fill="white"/>
<path d="M228.226 399.73C228.226 399.73 228.091 399.811 228.037 399.838C227.659 400 227.254 400.027 226.849 399.865C226.471 399.757 226.147 399.459 225.985 399.081C225.823 398.729 225.796 398.324 225.931 397.918L248.393 336.607C248.501 336.337 248.717 336.039 248.987 335.877C249.392 335.607 249.878 335.526 250.337 335.715C250.715 335.823 251.012 336.12 251.201 336.472C251.389 336.877 251.389 337.256 251.255 337.661L228.793 398.946C228.685 399.27 228.469 399.54 228.226 399.703V399.73Z" fill="white"/>
<path d="M234.759 395.783C234.759 395.783 234.651 395.81 234.57 395.864C234.22 396.053 233.788 396.053 233.41 395.945L224.42 392.647C224.042 392.485 223.745 392.214 223.556 391.863C223.394 391.512 223.367 391.106 223.529 390.701C223.637 390.376 223.853 390.133 224.123 389.944C224.528 389.673 225.014 389.619 225.473 389.781L234.436 393.079C234.84 393.188 235.11 393.485 235.299 393.89C235.488 394.242 235.488 394.647 235.353 395.053C235.245 395.377 235.029 395.621 234.759 395.81V395.783Z" fill="white"/>
<path d="M253.117 345.69C253.117 345.69 253.009 345.798 252.928 345.798C252.55 345.988 252.145 345.988 251.74 345.853L242.778 342.582C241.995 342.311 241.59 341.419 241.887 340.635C241.995 340.311 242.211 340.067 242.454 339.878C242.858 339.608 243.344 339.554 243.83 339.716L252.793 343.014C253.171 343.122 253.468 343.42 253.657 343.825C253.846 344.176 253.846 344.582 253.684 344.987C253.576 345.258 253.36 345.555 253.09 345.69H253.117Z" fill="white"/>
<path d="M270.071 380.32C270.071 380.32 269.909 380.401 269.882 380.428C269.504 380.59 269.072 380.617 268.695 380.482L207.465 357.99C207.088 357.882 206.791 357.585 206.602 357.206C206.44 356.855 206.413 356.449 206.548 356.044C206.656 355.72 206.872 355.476 207.142 355.341C207.547 355.071 208.032 354.99 208.491 355.152L269.72 377.671C270.098 377.779 270.395 378.076 270.557 378.427C270.746 378.833 270.746 379.211 270.611 379.617C270.503 379.887 270.287 380.185 270.044 380.32H270.071Z" fill="white"/>
<path d="M212.784 364.37C212.784 364.37 212.676 364.478 212.595 364.478C212.217 364.695 211.812 364.695 211.407 364.532C211.056 364.424 210.732 364.127 210.57 363.775C210.408 363.37 210.381 362.991 210.516 362.613L213.81 353.611C213.918 353.287 214.134 353.043 214.404 352.854C214.809 352.611 215.295 352.53 215.754 352.692C216.131 352.854 216.428 353.124 216.617 353.476C216.779 353.827 216.806 354.26 216.671 354.665L213.378 363.64C213.27 363.965 213.054 364.208 212.784 364.37Z" fill="white"/>
<path d="M262.809 382.753C262.809 382.753 262.674 382.834 262.62 382.861C262.269 383.023 261.837 383.05 261.459 382.915C261.054 382.807 260.757 382.51 260.595 382.131C260.407 381.78 260.407 381.374 260.569 380.969L263.835 371.994C263.943 371.669 264.159 371.426 264.429 371.237C264.834 370.993 265.347 370.912 265.779 371.074C266.184 371.237 266.481 371.507 266.643 371.858C266.805 372.21 266.832 372.642 266.67 373.021L263.376 382.023C263.268 382.293 263.052 382.591 262.782 382.753H262.809Z" fill="white"/>
<path d="M246.989 385.456C246.989 385.456 246.881 385.537 246.827 385.537C246.422 385.726 245.963 385.726 245.585 385.51L239.187 381.915L233.113 386.024C232.735 386.267 232.276 386.348 231.871 386.186C231.466 386.024 231.142 385.672 231.007 385.267L229.036 378.211L221.828 376.805C221.423 376.724 221.045 376.4 220.856 376.022C220.667 375.67 220.694 375.183 220.91 374.778L224.501 368.398L220.397 362.289C220.154 361.937 220.1 361.505 220.235 361.045C220.343 360.775 220.532 360.559 220.802 360.369C220.91 360.315 221.045 360.261 221.153 360.207L228.199 358.207L229.603 351.043C229.684 350.691 229.9 350.367 230.197 350.178C230.251 350.124 230.305 350.097 230.386 350.07C230.791 349.907 231.25 349.907 231.628 350.151L237.999 353.746L244.1 349.637C244.451 349.367 244.883 349.313 245.342 349.475C245.747 349.637 246.071 349.961 246.179 350.394L248.15 357.45L255.331 358.855C255.763 358.937 256.141 359.207 256.33 359.612C256.519 360.018 256.492 360.504 256.276 360.883L252.685 367.263L256.708 373.156C256.708 373.156 256.87 373.399 256.924 373.507C257.194 374.102 256.978 374.859 256.411 375.211C256.384 375.238 256.303 375.292 256.249 375.292H256.222C256.222 375.292 256.114 375.373 256.033 375.373L248.987 377.373L247.583 384.591C247.529 384.942 247.313 385.267 246.989 385.456ZM238.377 379.157C238.377 379.157 238.485 379.076 238.566 379.076C238.971 378.887 239.43 378.887 239.808 379.103L245.288 382.158L246.476 375.967C246.53 375.616 246.746 375.292 247.043 375.102C247.151 375.021 247.313 374.994 247.421 374.94L253.468 373.237L249.932 368.047C249.662 367.614 249.635 367.046 249.878 366.614L252.955 361.126L246.8 359.937C246.287 359.856 245.855 359.45 245.72 358.991L244.019 352.935L238.809 356.449C238.377 356.774 237.81 356.774 237.378 356.531L231.925 353.449L230.737 359.585C230.656 359.991 230.44 360.261 230.143 360.504C230.035 360.531 229.9 360.613 229.765 360.667L223.718 362.343L227.227 367.56C227.497 367.993 227.551 368.56 227.281 368.993L224.204 374.454L230.386 375.643C230.872 375.751 231.277 376.13 231.412 376.643L233.113 382.699L238.296 379.157H238.377Z" fill="white"/>
<path d="M257.032 385.267C257.032 385.267 256.924 385.348 256.843 385.348C256.6 385.456 256.357 385.51 256.114 385.456L246.206 384.267L240.726 392.593C240.618 392.755 240.483 392.863 240.321 392.998C240.132 393.107 239.889 393.188 239.646 393.188C239.214 393.242 238.782 393.025 238.512 392.701L232.357 384.834L222.611 386.835C222.179 386.916 221.747 386.808 221.423 386.483C221.099 386.213 220.937 385.753 220.991 385.321L222.179 375.427L213.864 369.912C213.486 369.669 213.27 369.263 213.243 368.831C213.243 368.344 213.432 367.966 213.783 367.668L221.585 361.532L219.587 351.719C219.506 351.313 219.641 350.854 219.938 350.529C219.992 350.448 220.1 350.367 220.181 350.34C220.451 350.151 220.775 350.097 221.099 350.097L230.98 351.286L236.46 342.987C236.568 342.825 236.703 342.663 236.865 342.581C237.081 342.419 237.297 342.338 237.567 342.338C237.999 342.338 238.431 342.527 238.701 342.852L244.856 350.718L254.629 348.718C255.034 348.637 255.493 348.745 255.817 349.042C256.141 349.367 256.303 349.799 256.249 350.232L255.034 360.126L263.349 365.641C263.727 365.884 263.943 366.29 263.97 366.722C263.97 367.155 263.781 367.614 263.457 367.885L255.601 374.021L257.599 383.78C257.707 384.213 257.545 384.672 257.275 384.97C257.194 385.078 257.113 385.132 257.005 385.213L257.032 385.267ZM244.802 381.671C245.072 381.509 245.396 381.428 245.72 381.455L254.575 382.482L252.793 373.751C252.685 373.237 252.874 372.723 253.279 372.399L260.299 366.884L252.847 361.991C252.415 361.667 252.199 361.207 252.253 360.667L253.333 351.827L244.586 353.611C244.073 353.692 243.56 353.476 243.236 353.097L237.729 346.069L232.816 353.53C232.708 353.692 232.573 353.8 232.411 353.935C232.141 354.098 231.817 354.179 231.493 354.125L222.665 353.043L224.447 361.802C224.555 362.289 224.366 362.802 223.961 363.154L216.942 368.668L224.393 373.561C224.825 373.832 225.068 374.373 225.014 374.886L223.961 383.726L232.681 381.942C233.194 381.861 233.707 382.023 234.031 382.455L239.538 389.484L244.451 382.023C244.559 381.861 244.694 381.753 244.829 381.617L244.802 381.671Z" fill="white"/>
<path d="M269.802 355.368C269.802 355.368 269.694 355.449 269.613 355.476L210.462 382.915C210.084 383.104 209.679 383.104 209.301 382.942C208.896 382.834 208.6 382.537 208.438 382.185C208.114 381.509 208.357 380.671 209.004 380.266C209.058 380.239 209.112 380.185 209.193 380.158L268.344 352.692C269.1 352.368 270.018 352.692 270.368 353.449C270.692 354.125 270.449 354.963 269.802 355.368Z" fill="#E1F0FA"/>
<path d="M266.4 362.235C266.4 362.235 266.265 362.316 266.211 362.343C265.455 362.694 264.564 362.343 264.213 361.586L260.19 352.908C259.867 352.232 260.11 351.421 260.757 350.989C260.784 350.962 260.865 350.908 260.946 350.908C261.702 350.556 262.593 350.881 262.971 351.638L266.967 360.315C267.291 360.991 267.048 361.829 266.427 362.235H266.4Z" fill="#E1F0FA"/>
<path d="M218.075 384.618C218.075 384.618 217.94 384.699 217.886 384.726C217.131 385.078 216.24 384.753 215.862 383.969L211.839 375.319C211.515 374.643 211.758 373.805 212.406 373.399C212.46 373.372 212.514 373.318 212.595 373.291C213.351 372.94 214.242 373.291 214.593 374.048L218.615 382.699C218.939 383.375 218.696 384.213 218.075 384.618Z" fill="#E1F0FA"/>
<path d="M253.927 398.702C253.927 398.702 253.819 398.811 253.738 398.811C253.387 398.973 252.982 399 252.577 398.865C252.226 398.73 251.902 398.459 251.713 398.108L224.312 338.824C223.988 338.148 224.231 337.364 224.879 336.905C224.932 336.85 224.986 336.823 225.067 336.796C225.418 336.634 225.85 336.634 226.228 336.742C226.606 336.905 226.903 337.175 227.092 337.526L254.494 396.756C254.818 397.459 254.575 398.27 253.927 398.675V398.702Z" fill="#E1F0FA"/>
<path d="M255.763 391.295C255.763 391.295 255.655 391.376 255.574 391.403L246.908 395.377C246.53 395.567 246.125 395.567 245.72 395.458C245.369 395.296 245.045 395.026 244.856 394.674C244.559 393.999 244.802 393.161 245.423 392.755C245.477 392.728 245.558 392.674 245.612 392.647L254.278 388.619C254.629 388.457 255.061 388.457 255.439 388.565C255.844 388.727 256.141 388.998 256.303 389.349C256.627 390.025 256.384 390.863 255.736 391.268L255.763 391.295Z" fill="#E1F0FA"/>
<path d="M233.383 342.879C233.383 342.879 233.248 342.96 233.194 342.987L224.528 346.988C224.177 347.177 223.745 347.177 223.367 347.069C222.989 346.907 222.692 346.636 222.503 346.285C222.179 345.609 222.422 344.771 223.043 344.366C223.124 344.312 223.151 344.285 223.232 344.23L231.898 340.203C232.249 340.04 232.654 340.04 233.059 340.175C233.437 340.338 233.734 340.608 233.923 340.959C234.22 341.635 234.004 342.473 233.383 342.879Z" fill="#E1F0FA"/>
<path d="M229.009 399.73C229.009 399.73 228.874 399.811 228.82 399.838C228.469 400 228.037 400.027 227.659 399.865C227.254 399.757 226.984 399.459 226.795 399.081C226.606 398.729 226.606 398.324 226.741 397.918L249.203 336.607C249.311 336.337 249.527 336.039 249.797 335.877C250.229 335.607 250.715 335.526 251.147 335.715C251.551 335.823 251.848 336.12 252.01 336.472C252.172 336.877 252.199 337.256 252.064 337.661L229.576 398.946C229.468 399.27 229.279 399.54 229.009 399.703V399.73Z" fill="#E1F0FA"/>
<path d="M235.515 395.783C235.515 395.783 235.407 395.81 235.326 395.864C234.948 396.053 234.543 396.053 234.165 395.945L225.202 392.647C224.797 392.485 224.501 392.214 224.339 391.863C224.15 391.512 224.15 391.106 224.285 390.701C224.393 390.376 224.609 390.133 224.878 389.944C225.283 389.673 225.796 389.619 226.228 389.781L235.218 393.079C235.596 393.188 235.92 393.485 236.082 393.89C236.244 394.242 236.271 394.647 236.109 395.053C236.001 395.377 235.785 395.621 235.515 395.81V395.783Z" fill="#E1F0FA"/>
<path d="M253.873 345.69C253.873 345.69 253.765 345.798 253.684 345.798C253.333 345.988 252.901 345.988 252.523 345.853L243.56 342.582C242.778 342.311 242.346 341.419 242.643 340.635C242.751 340.311 242.967 340.067 243.236 339.878C243.641 339.608 244.127 339.554 244.586 339.716L253.549 343.014C253.954 343.122 254.251 343.42 254.413 343.825C254.575 344.176 254.602 344.582 254.44 344.987C254.332 345.258 254.116 345.555 253.846 345.69H253.873Z" fill="#E1F0FA"/>
<path d="M270.854 380.32C270.854 380.32 270.719 380.401 270.665 380.428C270.314 380.59 269.882 380.617 269.504 380.482L208.275 357.99C207.897 357.882 207.574 357.585 207.412 357.206C207.223 356.855 207.223 356.449 207.358 356.044C207.466 355.72 207.655 355.476 207.924 355.341C208.329 355.071 208.842 354.99 209.274 355.152L270.503 377.671C270.908 377.779 271.178 378.076 271.367 378.427C271.529 378.833 271.529 379.211 271.421 379.617C271.286 379.887 271.097 380.185 270.827 380.32H270.854Z" fill="#E1F0FA"/>
<path d="M213.567 364.37C213.567 364.37 213.459 364.478 213.378 364.478C213 364.695 212.595 364.695 212.19 364.532C211.812 364.424 211.488 364.127 211.326 363.775C211.164 363.37 211.137 362.991 211.299 362.613L214.566 353.611C214.674 353.287 214.89 353.043 215.133 352.854C215.538 352.611 216.051 352.53 216.51 352.692C216.888 352.854 217.212 353.124 217.374 353.476C217.536 353.827 217.563 354.26 217.401 354.665L214.107 363.64C213.999 363.965 213.783 364.208 213.513 364.37H213.567Z" fill="#E1F0FA"/>
<path d="M263.565 382.753C263.565 382.753 263.457 382.834 263.376 382.861C263.025 383.023 262.593 383.05 262.215 382.915C261.81 382.807 261.513 382.51 261.351 382.131C261.189 381.78 261.162 381.374 261.297 380.969L264.591 371.994C264.699 371.669 264.915 371.426 265.185 371.237C265.59 370.993 266.076 370.912 266.535 371.074C266.913 371.237 267.237 371.507 267.399 371.858C267.588 372.21 267.588 372.642 267.453 373.021L264.186 382.023C264.051 382.293 263.862 382.591 263.565 382.753Z" fill="#E1F0FA"/>
<path d="M247.799 385.456C247.799 385.456 247.691 385.537 247.61 385.537C247.205 385.726 246.746 385.726 246.368 385.51L239.997 381.915L233.896 386.024C233.545 386.267 233.086 386.348 232.654 386.186C232.249 386.024 231.925 385.672 231.817 385.267L229.819 378.211L222.665 376.805C222.233 376.724 221.855 376.4 221.666 376.022C221.477 375.67 221.504 375.183 221.693 374.778L225.284 368.398L221.18 362.289C220.91 361.937 220.883 361.505 221.045 361.045C221.126 360.775 221.315 360.559 221.558 360.369C221.666 360.315 221.801 360.261 221.936 360.207L229.009 358.207L230.413 351.043C230.467 350.691 230.683 350.367 230.98 350.178C231.034 350.124 231.088 350.097 231.169 350.07C231.574 349.907 232.033 349.907 232.411 350.151L238.809 353.746L244.883 349.637C245.261 349.367 245.693 349.313 246.125 349.475C246.53 349.637 246.854 349.961 246.962 350.394L248.96 357.45L256.141 358.855C256.546 358.937 256.951 359.207 257.113 359.612C257.302 360.018 257.275 360.504 257.059 360.883L253.468 367.263L257.437 373.156C257.437 373.156 257.626 373.399 257.68 373.507C257.95 374.102 257.761 374.859 257.194 375.211C257.14 375.238 257.086 375.292 257.005 375.292H256.951C256.951 375.292 256.843 375.373 256.762 375.373L249.716 377.373L248.312 384.591C248.231 384.942 248.015 385.267 247.745 385.456H247.799ZM239.16 379.157C239.16 379.157 239.268 379.076 239.349 379.076C239.754 378.887 240.213 378.887 240.591 379.103L246.044 382.158L247.232 375.967C247.313 375.616 247.502 375.292 247.826 375.102C247.934 375.021 248.069 374.994 248.204 374.94L254.224 373.237L250.715 368.047C250.445 367.614 250.391 367.046 250.661 366.614L253.738 361.126L247.556 359.937C247.07 359.856 246.638 359.45 246.503 358.991L244.802 352.935L239.619 356.449C239.187 356.774 238.62 356.774 238.188 356.531L232.708 353.449L231.52 359.585C231.466 359.991 231.25 360.261 230.926 360.504C230.818 360.531 230.683 360.613 230.575 360.667L224.528 362.343L228.037 367.56C228.334 367.993 228.361 368.56 228.118 368.993L225.041 374.454L231.196 375.643C231.709 375.751 232.114 376.13 232.276 376.643L233.95 382.699L239.16 379.157Z" fill="#E1F0FA"/>
<path d="M257.815 385.267C257.815 385.267 257.707 385.348 257.653 385.348C257.41 385.456 257.14 385.51 256.924 385.456L247.043 384.267L241.536 392.593C241.428 392.755 241.293 392.863 241.158 392.998C240.942 393.107 240.699 393.188 240.429 393.188C239.997 393.242 239.565 393.025 239.322 392.701L233.14 384.834L223.394 386.835C222.989 386.916 222.53 386.808 222.206 386.483C221.882 386.213 221.72 385.753 221.774 385.321L222.962 375.427L214.647 369.912C214.296 369.669 214.08 369.263 214.053 368.831C214.053 368.344 214.242 367.966 214.566 367.668L222.422 361.532L220.397 351.719C220.316 351.313 220.451 350.854 220.721 350.529C220.802 350.448 220.883 350.367 220.991 350.34C221.261 350.151 221.558 350.097 221.882 350.097L231.79 351.286L237.27 342.987C237.378 342.825 237.513 342.663 237.675 342.581C237.864 342.419 238.107 342.338 238.377 342.338C238.809 342.338 239.241 342.527 239.484 342.852L245.666 350.718L255.412 348.718C255.844 348.637 256.276 348.745 256.6 349.042C256.924 349.367 257.086 349.799 257.032 350.232L255.844 360.126L264.159 365.641C264.51 365.884 264.753 366.29 264.753 366.722C264.807 367.155 264.591 367.614 264.24 367.885L256.411 374.021L258.409 383.78C258.49 384.213 258.409 384.672 258.085 384.97C258.004 385.078 257.923 385.132 257.842 385.213L257.815 385.267ZM245.585 381.671C245.855 381.509 246.152 381.428 246.476 381.455L255.331 382.482L253.549 373.751C253.441 373.237 253.63 372.723 254.035 372.399L261.054 366.884L253.63 361.991C253.198 361.667 252.955 361.207 253.009 360.667L254.062 351.827L245.342 353.611C244.829 353.692 244.316 353.476 243.992 353.097L238.512 346.069L233.572 353.53C233.491 353.692 233.329 353.8 233.194 353.935C232.924 354.098 232.6 354.179 232.276 354.125L223.421 353.043L225.202 361.802C225.31 362.289 225.121 362.802 224.717 363.154L217.697 368.668L225.175 373.561C225.58 373.832 225.823 374.373 225.769 374.886L224.69 383.726L233.41 381.942C233.922 381.861 234.435 382.023 234.759 382.455L240.267 389.484L245.18 382.023C245.288 381.861 245.423 381.753 245.585 381.617V381.671Z" fill="#E1F0FA"/>
<path d="M374.307 289.029C374.307 289.029 374.118 289.137 374.01 289.191L286.81 329.66C286.27 329.903 285.649 329.93 285.109 329.741C284.542 329.551 284.083 329.092 283.84 328.578C283.408 327.578 283.732 326.334 284.65 325.74C284.758 325.659 284.839 325.632 284.947 325.577L372.12 285.109C373.254 284.595 374.577 285.082 375.117 286.217C375.603 287.217 375.252 288.407 374.334 289.002L374.307 289.029Z" fill="white"/>
<path d="M369.285 299.139C369.285 299.139 369.096 299.247 369.015 299.301C367.881 299.815 366.558 299.328 366.019 298.193L360.106 285.406C359.62 284.406 359.971 283.217 360.889 282.622C360.997 282.541 361.078 282.514 361.186 282.46C362.293 281.946 363.643 282.433 364.156 283.541L370.095 296.328C370.554 297.328 370.203 298.571 369.285 299.166V299.139Z" fill="white"/>
<path d="M298.04 332.201C298.04 332.201 297.851 332.282 297.77 332.363C296.663 332.876 295.314 332.363 294.774 331.254L288.861 318.468C288.402 317.468 288.753 316.278 289.671 315.683C289.752 315.602 289.86 315.548 289.941 315.521C291.048 315.008 292.398 315.467 292.938 316.602L298.85 329.389C299.309 330.389 298.958 331.579 298.04 332.228V332.201Z" fill="white"/>
<path d="M350.9 352.935C350.9 352.935 350.711 353.07 350.603 353.097C350.063 353.341 349.469 353.368 348.902 353.178C348.336 352.989 347.877 352.53 347.634 352.016L307.219 264.672C306.76 263.671 307.084 262.428 308.002 261.833C308.11 261.806 308.191 261.725 308.299 261.671C308.839 261.428 309.46 261.401 310 261.59C310.567 261.833 311.026 262.239 311.242 262.779L351.656 350.097C352.142 351.097 351.764 352.34 350.873 352.935H350.9Z" fill="white"/>
<path d="M353.6 341.96C353.6 341.96 353.411 342.068 353.303 342.122L340.533 348.069C339.993 348.312 339.373 348.339 338.833 348.123C338.266 347.907 337.807 347.528 337.564 346.961C337.105 345.961 337.456 344.771 338.347 344.176C338.455 344.095 338.536 344.068 338.644 344.014L351.413 338.067C351.953 337.824 352.574 337.797 353.114 337.986C353.681 338.175 354.113 338.635 354.383 339.148C354.815 340.175 354.491 341.392 353.573 341.987L353.6 341.96Z" fill="white"/>
<path d="M320.583 270.646C320.583 270.646 320.394 270.754 320.286 270.808L307.516 276.701C306.976 276.972 306.355 276.972 305.815 276.783C305.248 276.593 304.789 276.188 304.573 275.62C304.087 274.62 304.465 273.376 305.356 272.782C305.437 272.755 305.545 272.674 305.626 272.619L318.396 266.726C318.963 266.456 319.557 266.456 320.097 266.645C320.664 266.834 321.123 267.24 321.366 267.808C321.824 268.808 321.474 270.051 320.556 270.646H320.583Z" fill="white"/>
<path d="M314.157 354.449C314.157 354.449 313.968 354.557 313.887 354.611C313.321 354.854 312.7 354.882 312.16 354.692C311.593 354.503 311.134 354.043 310.918 353.53C310.648 352.962 310.648 352.367 310.837 351.773L343.935 261.428C344.124 260.941 344.394 260.59 344.799 260.319C345.393 259.914 346.122 259.833 346.797 260.13C347.364 260.319 347.823 260.725 348.066 261.293C348.336 261.806 348.336 262.455 348.12 262.996L315.048 353.341C314.886 353.827 314.562 354.179 314.184 354.449H314.157Z" fill="white"/>
<path d="M323.795 348.583C323.795 348.583 323.606 348.691 323.525 348.745C322.958 349.015 322.364 349.015 321.825 348.826L308.596 343.96C308.029 343.771 307.597 343.365 307.354 342.798C307.111 342.23 307.084 341.635 307.273 341.095C307.462 340.662 307.759 340.257 308.137 339.986C308.731 339.635 309.46 339.5 310.135 339.797L323.363 344.636C323.93 344.879 324.389 345.258 324.605 345.825C324.875 346.339 324.875 346.934 324.686 347.529C324.524 347.961 324.2 348.367 323.822 348.61L323.795 348.583Z" fill="white"/>
<path d="M350.819 274.782C350.819 274.782 350.63 274.917 350.549 274.944C349.982 275.188 349.388 275.215 348.848 275.025L335.62 270.159C334.459 269.727 333.865 268.456 334.297 267.294C334.486 266.807 334.756 266.456 335.161 266.186C335.755 265.78 336.484 265.699 337.186 265.942L350.387 270.808C350.954 270.997 351.413 271.403 351.629 271.971C351.899 272.538 351.899 273.133 351.71 273.674C351.548 274.16 351.224 274.512 350.846 274.782H350.819Z" fill="white"/>
<path d="M375.818 325.821C375.818 325.821 375.629 325.929 375.521 325.983C374.982 326.253 374.388 326.253 373.821 326.064L283.597 292.948C283.03 292.732 282.571 292.3 282.328 291.786C282.085 291.218 282.058 290.624 282.274 290.056C282.463 289.569 282.76 289.218 283.138 288.948C283.732 288.542 284.461 288.461 285.136 288.704L375.36 321.82C375.926 322.063 376.385 322.469 376.628 323.009C376.871 323.523 376.898 324.172 376.709 324.712C376.52 325.145 376.223 325.551 375.818 325.794V325.821Z" fill="white"/>
<path d="M291.426 302.329C291.426 302.329 291.237 302.437 291.156 302.491C290.589 302.761 289.995 302.761 289.455 302.572C288.888 302.383 288.429 301.923 288.186 301.41C287.916 300.842 287.916 300.247 288.105 299.707L292.965 286.46C293.127 285.974 293.451 285.622 293.829 285.352C294.423 284.947 295.152 284.865 295.826 285.109C296.393 285.298 296.852 285.758 297.095 286.271C297.338 286.839 297.365 287.434 297.176 287.974L292.317 301.248C292.155 301.68 291.831 302.032 291.426 302.329Z" fill="white"/>
<path d="M365.128 329.416C365.128 329.416 364.939 329.524 364.858 329.578C364.318 329.849 363.697 329.849 363.157 329.66C362.59 329.47 362.131 329.065 361.915 328.497C361.645 327.929 361.645 327.335 361.861 326.767L366.693 313.521C366.855 313.034 367.152 312.683 367.557 312.412C368.151 312.007 368.88 311.926 369.555 312.169C370.122 312.412 370.554 312.818 370.797 313.359C371.067 313.872 371.067 314.521 370.878 315.062L366.045 328.308C365.856 328.74 365.559 329.146 365.155 329.389L365.128 329.416Z" fill="white"/>
<path d="M341.829 333.39C341.829 333.39 341.667 333.471 341.559 333.498C340.992 333.769 340.29 333.769 339.723 333.444L330.301 328.146L321.365 334.201C320.799 334.553 320.151 334.634 319.557 334.39C318.936 334.201 318.477 333.687 318.315 333.039L315.399 322.631L304.816 320.603C304.168 320.495 303.655 320.036 303.386 319.441C303.116 318.873 303.143 318.197 303.467 317.657L308.758 308.195L302.711 299.22C302.36 298.707 302.279 298.031 302.495 297.436C302.657 297.003 302.927 296.679 303.278 296.436C303.44 296.328 303.628 296.246 303.844 296.165L314.238 293.246L316.29 282.649C316.398 282.135 316.695 281.649 317.154 281.324C317.262 281.297 317.343 281.243 317.424 281.216C317.991 280.946 318.693 280.973 319.26 281.297L328.655 286.569L337.618 280.54C338.185 280.135 338.805 280.054 339.453 280.297C340.047 280.54 340.506 281.027 340.695 281.649L343.611 292.056L354.194 294.084C354.842 294.192 355.382 294.652 355.652 295.246C355.922 295.841 355.922 296.517 355.598 297.085L350.279 306.492L356.192 315.224C356.326 315.386 356.434 315.548 356.515 315.737C356.947 316.603 356.65 317.684 355.787 318.252C355.706 318.279 355.625 318.36 355.544 318.414H355.463C355.463 318.414 355.301 318.495 355.193 318.522L344.799 321.441L342.747 332.038C342.639 332.606 342.315 333.066 341.883 333.363L341.829 333.39ZM329.114 324.145C329.114 324.145 329.303 324.037 329.384 323.983C329.977 323.712 330.679 323.712 331.246 324.01L339.318 328.551L341.073 319.468C341.181 318.954 341.505 318.468 341.937 318.197C342.099 318.089 342.288 318.008 342.504 317.927L351.413 315.413L346.23 307.763C345.798 307.114 345.744 306.303 346.122 305.654L350.63 297.571L341.559 295.814C340.83 295.706 340.209 295.138 339.993 294.381L337.51 285.487L329.843 290.678C329.222 291.083 328.385 291.11 327.737 290.759L319.665 286.217L317.883 295.3C317.802 295.868 317.478 296.301 317.019 296.625C316.83 296.733 316.641 296.841 316.452 296.868L307.543 299.382L312.726 307.033C313.131 307.682 313.185 308.52 312.807 309.141L308.272 317.224L317.343 318.981C318.099 319.144 318.693 319.684 318.909 320.414L321.419 329.335L329.06 324.145H329.114Z" fill="white"/>
<path d="M356.624 333.12C356.624 333.12 356.435 333.201 356.354 333.228C356.03 333.39 355.625 333.471 355.274 333.39L340.695 331.633L332.596 343.906C332.434 344.149 332.245 344.339 332.029 344.501C331.732 344.69 331.381 344.825 331.004 344.825C330.356 344.825 329.735 344.555 329.33 344.068L320.286 332.471L305.869 335.418C305.248 335.58 304.601 335.391 304.115 334.931C303.629 334.499 303.386 333.85 303.467 333.228L305.221 318.63L292.965 310.493C292.425 310.142 292.101 309.547 292.074 308.898C292.074 308.249 292.344 307.627 292.857 307.222L304.385 298.166L301.469 283.73C301.334 283.081 301.523 282.46 301.955 281.973C302.063 281.865 302.198 281.73 302.36 281.649C302.765 281.378 303.224 281.297 303.683 281.324L318.261 283.081L326.333 270.808C326.495 270.565 326.657 270.403 326.9 270.241C327.224 270.051 327.575 269.916 327.926 269.916C328.574 269.889 329.195 270.159 329.6 270.673L338.671 282.243L353.033 279.297C353.654 279.189 354.329 279.324 354.788 279.783C355.274 280.216 355.517 280.865 355.436 281.54L353.681 296.138L365.938 304.221C366.504 304.573 366.801 305.167 366.855 305.816C366.855 306.465 366.585 307.087 366.073 307.492L354.518 316.575L357.461 330.957C357.569 331.606 357.407 332.282 356.975 332.714C356.84 332.877 356.732 332.958 356.597 333.066L356.624 333.12ZM338.617 327.821C339.022 327.578 339.481 327.47 339.967 327.497L352.979 329.092L350.36 316.17C350.198 315.467 350.495 314.71 351.089 314.17L361.429 306.087L350.468 298.842C349.847 298.409 349.496 297.652 349.577 296.922L351.17 283.838L338.293 286.46C337.537 286.623 336.781 286.352 336.295 285.731L328.169 275.377L320.934 286.379C320.772 286.569 320.583 286.785 320.367 286.92C319.962 287.19 319.503 287.271 319.017 287.244L305.977 285.677L308.596 298.544C308.758 299.301 308.488 300.058 307.867 300.545L297.527 308.682L308.515 315.9C309.136 316.332 309.487 317.089 309.379 317.846L307.813 330.876L320.664 328.254C321.42 328.092 322.149 328.362 322.661 328.984L330.788 339.337L338.023 328.389C338.185 328.146 338.347 327.956 338.59 327.794L338.617 327.821Z" fill="white"/>
<path d="M375.44 289.029C375.44 289.029 375.251 289.137 375.143 289.191L287.943 329.66C287.403 329.903 286.81 329.93 286.243 329.741C285.676 329.551 285.217 329.092 285.001 328.578C284.515 327.578 284.866 326.334 285.784 325.74C285.865 325.659 285.973 325.632 286.054 325.577L373.281 285.109C374.388 284.595 375.737 285.082 376.25 286.217C376.709 287.217 376.358 288.407 375.467 289.002L375.44 289.029Z" fill="#E1F0FA"/>
<path d="M370.419 299.139C370.419 299.139 370.23 299.247 370.149 299.301C369.015 299.815 367.665 299.328 367.152 298.193L361.24 285.406C360.781 284.406 361.132 283.217 362.05 282.622C362.131 282.541 362.239 282.514 362.32 282.46C363.427 281.946 364.777 282.433 365.317 283.541L371.202 296.328C371.688 297.328 371.31 298.571 370.419 299.166V299.139Z" fill="#E1F0FA"/>
<path d="M299.201 332.201C299.201 332.201 299.012 332.282 298.904 332.363C297.77 332.876 296.447 332.363 295.934 331.254L289.995 318.468C289.536 317.468 289.887 316.278 290.778 315.683C290.886 315.602 290.967 315.548 291.075 315.521C292.209 315.008 293.532 315.467 294.072 316.602L299.984 329.389C300.443 330.389 300.092 331.579 299.201 332.228V332.201Z" fill="#E1F0FA"/>
<path d="M352.034 352.935C352.034 352.935 351.845 353.07 351.737 353.097C351.224 353.341 350.576 353.368 350.036 353.178C349.496 352.989 349.037 352.53 348.794 352.016L308.407 264.672C307.921 263.671 308.299 262.428 309.19 261.833C309.271 261.806 309.379 261.725 309.46 261.671C310.027 261.428 310.621 261.401 311.161 261.59C311.728 261.833 312.187 262.239 312.429 262.779L352.844 350.097C353.276 351.097 352.952 352.34 352.034 352.935Z" fill="#E1F0FA"/>
<path d="M354.734 341.96C354.734 341.96 354.545 342.068 354.437 342.122L341.667 348.069C341.1 348.312 340.506 348.339 339.966 348.123C339.399 347.907 338.941 347.528 338.698 346.961C338.239 345.961 338.59 344.771 339.507 344.176C339.588 344.095 339.696 344.068 339.777 344.014L352.547 338.067C353.087 337.824 353.681 337.797 354.248 337.986C354.815 338.175 355.274 338.635 355.49 339.148C355.976 340.175 355.598 341.392 354.707 341.987L354.734 341.96Z" fill="#E1F0FA"/>
<path d="M321.716 270.646C321.716 270.646 321.528 270.754 321.447 270.808L308.677 276.701C308.137 276.972 307.516 276.972 306.976 276.783C306.409 276.593 305.977 276.188 305.707 275.62C305.248 274.62 305.599 273.376 306.517 272.782C306.625 272.755 306.706 272.674 306.814 272.619L319.584 266.726C320.124 266.456 320.745 266.456 321.285 266.645C321.851 266.834 322.31 267.24 322.526 267.808C323.012 268.808 322.634 270.051 321.743 270.646H321.716Z" fill="#E1F0FA"/>
<path d="M315.291 354.449C315.291 354.449 315.102 354.557 314.994 354.611C314.454 354.854 313.833 354.882 313.293 354.692C312.727 354.503 312.295 354.043 312.052 353.53C311.782 352.962 311.782 352.367 311.998 351.773L345.069 261.428C345.231 260.941 345.555 260.59 345.933 260.319C346.527 259.914 347.256 259.833 347.93 260.13C348.497 260.319 348.956 260.725 349.199 261.293C349.442 261.806 349.469 262.455 349.28 262.996L316.155 353.341C315.993 353.827 315.696 354.179 315.291 354.449Z" fill="#E1F0FA"/>
<path d="M324.929 348.583C324.929 348.583 324.74 348.691 324.632 348.745C324.119 349.015 323.471 349.015 322.931 348.826L309.703 343.96C309.136 343.771 308.704 343.365 308.461 342.798C308.191 342.23 308.191 341.635 308.407 341.095C308.569 340.662 308.893 340.257 309.271 339.986C309.865 339.635 310.594 339.5 311.269 339.797L324.47 344.636C325.037 344.879 325.496 345.258 325.739 345.825C325.982 346.339 326.009 346.934 325.793 347.529C325.604 347.961 325.334 348.367 324.929 348.61V348.583Z" fill="#E1F0FA"/>
<path d="M351.953 274.782C351.953 274.782 351.764 274.917 351.656 274.944C351.143 275.188 350.522 275.215 349.955 275.025L336.754 270.159C335.566 269.727 334.972 268.456 335.431 267.294C335.593 266.807 335.917 266.456 336.295 266.186C336.889 265.78 337.618 265.699 338.293 265.942L351.521 270.808C352.088 270.997 352.547 271.403 352.79 271.971C353.033 272.538 353.06 273.133 352.844 273.674C352.682 274.16 352.385 274.512 351.98 274.782H351.953Z" fill="#E1F0FA"/>
<path d="M376.952 325.821C376.952 325.821 376.763 325.929 376.655 325.983C376.115 326.253 375.494 326.253 374.954 326.064L284.731 292.948C284.164 292.732 283.705 292.3 283.489 291.786C283.219 291.218 283.219 290.624 283.408 290.056C283.597 289.569 283.894 289.218 284.272 288.948C284.866 288.542 285.595 288.461 286.27 288.704L376.52 321.82C377.087 322.063 377.519 322.469 377.762 323.009C378.032 323.523 378.032 324.172 377.816 324.712C377.654 325.145 377.357 325.551 376.952 325.794V325.821Z" fill="#E1F0FA"/>
<path d="M292.56 302.329C292.56 302.329 292.371 302.437 292.263 302.491C291.75 302.761 291.129 302.761 290.562 302.572C289.995 302.383 289.563 301.923 289.32 301.41C289.05 300.842 289.05 300.247 289.266 299.707L294.099 286.46C294.261 285.974 294.585 285.622 294.963 285.352C295.556 284.947 296.285 284.865 296.987 285.109C297.554 285.298 297.986 285.758 298.229 286.271C298.499 286.839 298.499 287.434 298.283 287.974L293.451 301.248C293.262 301.68 292.992 302.032 292.56 302.329Z" fill="#E1F0FA"/>
<path d="M366.261 329.416C366.261 329.416 366.072 329.524 365.991 329.578C365.425 329.849 364.831 329.849 364.291 329.66C363.724 329.47 363.265 329.065 363.022 328.497C362.752 327.929 362.752 327.335 362.941 326.767L367.8 313.521C367.962 313.034 368.286 312.683 368.664 312.412C369.258 312.007 369.987 311.926 370.662 312.169C371.229 312.412 371.688 312.818 371.931 313.359C372.174 313.872 372.201 314.521 371.985 315.062L367.152 328.308C366.99 328.74 366.666 329.146 366.288 329.389L366.261 329.416Z" fill="#E1F0FA"/>
<path d="M342.963 333.39C342.963 333.39 342.774 333.471 342.693 333.498C342.126 333.769 341.424 333.769 340.857 333.444L331.462 328.146L322.499 334.201C321.932 334.553 321.258 334.634 320.691 334.39C320.07 334.201 319.611 333.687 319.449 333.039L316.533 322.631L305.923 320.603C305.302 320.495 304.762 320.036 304.465 319.441C304.196 318.873 304.223 318.197 304.546 317.657L309.838 308.195L303.791 299.22C303.44 298.707 303.359 298.031 303.602 297.436C303.737 297.003 304.007 296.679 304.384 296.436C304.573 296.328 304.735 296.246 304.924 296.165L315.345 293.246L317.397 282.649C317.505 282.135 317.829 281.649 318.261 281.324C318.342 281.297 318.423 281.243 318.531 281.216C319.098 280.946 319.773 280.973 320.367 281.297L329.789 286.569L338.725 280.54C339.265 280.135 339.939 280.054 340.533 280.297C341.154 280.54 341.613 281.027 341.775 281.649L344.691 292.056L355.301 294.084C355.949 294.192 356.462 294.652 356.732 295.246C357.001 295.841 356.974 296.517 356.651 297.085L351.386 306.492L357.271 315.224C357.433 315.386 357.514 315.548 357.622 315.737C358.027 316.603 357.73 317.684 356.894 318.252C356.813 318.279 356.705 318.36 356.624 318.414H356.57C356.57 318.414 356.381 318.495 356.3 318.522L345.906 321.441L343.854 332.038C343.746 332.606 343.422 333.066 342.99 333.363L342.963 333.39ZM330.248 324.145C330.248 324.145 330.437 324.037 330.518 323.983C331.084 323.712 331.786 323.712 332.353 324.01L340.425 328.551L342.18 319.468C342.288 318.954 342.612 318.468 343.044 318.197C343.233 318.089 343.395 318.008 343.611 317.927L352.52 315.413L347.337 307.763C346.932 307.114 346.905 306.303 347.256 305.654L351.791 297.571L342.72 295.814C341.964 295.706 341.37 295.138 341.154 294.381L338.644 285.487L330.976 290.678C330.329 291.083 329.519 291.11 328.871 290.759L320.799 286.217L319.044 295.3C318.936 295.868 318.612 296.301 318.18 296.625C317.991 296.733 317.829 296.841 317.613 296.868L308.704 299.382L313.887 307.033C314.319 307.682 314.373 308.52 313.995 309.141L309.46 317.224L318.558 318.981C319.287 319.144 319.881 319.684 320.124 320.414L322.607 329.335L330.275 324.145H330.248Z" fill="#E1F0FA"/>
<path d="M357.758 333.12C357.758 333.12 357.596 333.201 357.488 333.228C357.164 333.39 356.786 333.471 356.408 333.39L341.829 331.633L333.757 343.906C333.595 344.149 333.406 344.339 333.19 344.501C332.893 344.69 332.542 344.825 332.164 344.825C331.516 344.825 330.896 344.555 330.491 344.068L321.42 332.471L307.057 335.418C306.409 335.58 305.734 335.391 305.275 334.931C304.79 334.499 304.574 333.85 304.628 333.228L306.382 318.63L294.153 310.493C293.586 310.142 293.289 309.547 293.235 308.898C293.235 308.249 293.505 307.627 294.018 307.222L305.545 298.166L302.63 283.73C302.495 283.081 302.684 282.46 303.143 281.973C303.251 281.865 303.386 281.73 303.521 281.649C303.899 281.378 304.385 281.297 304.844 281.324L319.422 283.081L327.521 270.808C327.656 270.565 327.872 270.403 328.088 270.241C328.385 270.051 328.736 269.916 329.114 269.916C329.762 269.889 330.383 270.159 330.788 270.673L339.859 282.243L354.221 279.297C354.842 279.189 355.517 279.324 356.003 279.783C356.489 280.216 356.732 280.865 356.651 281.54L354.896 296.138L367.152 304.221C367.665 304.573 368.016 305.167 368.043 305.816C368.043 306.465 367.773 307.087 367.26 307.492L355.706 316.575L358.648 330.957C358.756 331.606 358.594 332.282 358.135 332.714C358.027 332.877 357.892 332.958 357.758 333.066V333.12ZM339.751 327.821C340.155 327.578 340.614 327.47 341.073 327.497L354.14 329.092L351.521 316.17C351.359 315.467 351.629 314.71 352.25 314.17L362.59 306.087L351.629 298.842C350.981 298.409 350.657 297.652 350.765 296.922L352.304 283.838L339.454 286.46C338.698 286.623 337.942 286.352 337.456 285.731L329.357 275.377L322.095 286.379C321.96 286.569 321.771 286.785 321.528 286.92C321.123 287.19 320.664 287.271 320.178 287.244L307.138 285.677L309.757 298.544C309.946 299.301 309.649 300.058 309.028 300.545L298.688 308.682L309.649 315.9C310.27 316.332 310.621 317.089 310.513 317.846L308.947 330.876L321.825 328.254C322.554 328.092 323.336 328.362 323.795 328.984L331.921 339.337L339.157 328.389C339.319 328.146 339.508 327.956 339.724 327.794L339.751 327.821Z" fill="#E1F0FA"/>
<path d="M283.246 179.625C285.028 173.245 285.973 166.595 285.973 159.648C285.973 118.503 252.658 85.09 211.515 85.09C176.716 85.09 147.505 109.041 139.325 141.346C138.569 141.319 137.813 141.319 137.058 141.319C120.778 141.319 106.497 149.699 98.209 162.405C93.9705 160.648 89.3 159.648 84.4405 159.648C64.5168 159.648 48.3997 175.84 48.3997 195.764C48.3997 215.687 64.5168 231.88 84.4405 231.88C93.2145 231.88 101.233 228.745 107.469 223.5C115.514 230.15 125.827 234.178 137.058 234.178C149.611 234.178 160.977 229.204 169.346 221.067C181.332 229.312 195.857 234.178 211.515 234.178C225.823 234.178 239.16 230.15 250.526 223.122C255.682 229.583 263.592 233.719 272.474 233.719C287.997 233.719 300.578 221.121 300.578 205.577C300.578 193.845 293.424 183.815 283.246 179.571V179.625Z" fill="white"/>
<path d="M284.299 180.707C286.081 174.327 287.053 167.677 287.053 160.729C287.053 119.557 253.711 86.1714 212.595 86.1714C177.769 86.1714 148.558 110.123 140.405 142.428C139.649 142.373 138.893 142.373 138.138 142.373C121.858 142.373 107.55 150.754 99.2889 163.459C95.0504 161.702 90.407 160.702 85.4935 160.702C65.5968 160.702 49.4526 176.895 49.4526 196.818C49.4526 216.742 65.5968 232.935 85.4935 232.935C94.2675 232.935 102.286 229.799 108.549 224.554C116.594 231.205 126.907 235.233 138.138 235.233C150.691 235.233 162.057 230.204 170.426 222.121C182.412 230.367 196.937 235.233 212.595 235.233C226.876 235.233 240.24 231.178 251.579 224.203C256.762 230.664 264.645 234.8 273.554 234.8C289.05 234.8 301.658 222.203 301.658 206.658C301.658 194.926 294.504 184.897 284.299 180.68V180.707Z" fill="#007FC9"/>
<path d="M394.176 168.623C393.366 168.623 392.556 168.65 391.747 168.731C387.4 156.295 375.575 147.402 361.699 147.402C357.568 147.402 353.6 148.213 349.982 149.645C345.69 137.724 334.297 129.235 320.907 129.235C307.516 129.235 296.744 137.291 292.209 148.726C290.67 148.456 289.131 148.294 287.538 148.294C273.473 148.294 261.945 158.972 260.515 172.651C258.544 172.245 256.519 172.056 254.44 172.056C237.486 172.056 223.772 185.816 223.772 202.766C223.772 219.715 237.486 233.475 254.44 233.475C254.71 233.475 254.98 233.475 255.223 233.448C258.22 245.884 269.37 255.102 282.679 255.102C292.992 255.102 301.982 249.56 306.922 241.315C313.644 252.831 326.144 260.563 340.425 260.563C356.246 260.563 369.825 251.101 375.872 237.53C381.245 240.639 387.508 242.396 394.176 242.396C414.532 242.396 431 225.879 431 205.55C431 185.221 414.505 168.677 394.176 168.677V168.623Z" fill="#007FC9"/>
<path d="M364.048 94.0921C362.374 94.0921 360.7 94.2002 359.08 94.4165C352.898 76.1691 335.674 63.0039 315.345 63.0039C305.977 63.0039 297.23 65.8424 289.941 70.6273C284.974 56.9484 271.826 47.1895 256.411 47.1895C239.025 47.1895 224.555 59.6247 221.369 76.088C216.482 72.4655 210.381 70.2758 203.794 70.2758C188.703 70.2758 176.257 81.6298 174.502 96.2818H174.286C150.799 96.2818 131.766 115.34 131.766 138.859C131.766 162.378 150.799 181.382 174.286 181.382C181.764 181.382 188.811 179.436 194.912 176.03C197.099 190.79 209.814 202.09 225.175 202.09C237.297 202.09 247.799 195.034 252.739 184.762C262.107 198.548 277.9 207.605 295.826 207.605C318.909 207.605 338.509 192.493 345.312 171.65C350.927 174.57 357.298 176.192 364.075 176.192C386.698 176.192 405.056 157.809 405.056 135.129C405.056 112.448 386.698 94.1191 364.075 94.1191L364.048 94.0921Z" fill="#008DD4"/>
<path d="M228.848 192.655C225.311 192.493 221.91 192.98 218.724 194.007C214.54 172.867 196.479 156.404 173.99 155.241C152.204 154.079 133.009 167.676 126.098 187.303C107.659 186.356 91.9196 200.549 90.9477 218.986C90.0028 237.476 104.176 253.237 122.615 254.183C132.118 254.669 140.892 251.128 147.29 245.046C153.716 248.803 161.059 251.101 168.996 251.506C183.142 252.263 196.155 246.803 205.442 237.557C210.247 243.694 217.563 247.83 225.959 248.29C241.294 249.101 254.387 237.287 255.17 221.905C255.953 206.55 244.182 193.439 228.848 192.628V192.655Z" fill="#007FC9"/>
</g>
<defs>
<clipPath id="clip0_237_3468">
<rect width="412" height="354" fill="white" transform="translate(19 46)"/>
</clipPath>
</defs>
</svg>
