<svg width="450" height="446" viewBox="0 0 450 446" fill="none" xmlns="http://www.w3.org/2000/svg">
<g clip-path="url(#clip0_237_3147)">
<path d="M350.281 230.608C350.281 241.029 341.897 249.46 331.559 249.46H42.8977C32.5601 249.46 24.1763 241.029 24.1763 230.608C24.1763 220.237 32.5601 211.805 42.8977 211.805H331.559C341.897 211.805 350.281 220.237 350.281 230.608Z" fill="#E4F1F5"/>
<path d="M429 203.822C429 214.193 420.616 222.624 410.279 222.624H121.592C111.279 222.624 102.896 214.193 102.896 203.822C102.896 193.401 111.255 184.994 121.592 184.994H410.279C420.616 184.994 429 193.401 429 203.822Z" fill="#EEF7FA"/>
<path d="M284.991 146.991C284.991 157.412 276.607 165.819 266.269 165.819H115.36C105.022 165.819 96.6384 157.412 96.6384 146.991C96.6384 136.595 105.022 128.189 115.36 128.189H266.269C276.607 128.189 284.991 136.595 284.991 146.991Z" fill="#E4F1F5"/>
<path d="M348.747 174.325C348.747 184.696 340.364 193.127 330.026 193.127H179.117C168.804 193.127 160.42 184.696 160.42 174.325C160.42 163.904 168.804 155.472 179.117 155.472H330.026C340.339 155.472 348.747 163.904 348.747 174.325Z" fill="white"/>
<path d="M396.157 286.419C396.157 296.79 387.773 305.221 377.435 305.221H174.17C163.833 305.221 155.449 296.79 155.449 286.419C155.449 275.998 163.808 267.567 174.17 267.567H377.435C387.773 267.567 396.157 275.998 396.157 286.419Z" fill="#E4F1F5"/>
</g>
<defs>
<clipPath id="clip0_237_3147">
<rect width="407" height="193" fill="white" transform="translate(22 126)"/>
</clipPath>
</defs>
</svg>
