<svg width="612" height="702" viewBox="0 0 612 702" fill="none" xmlns="http://www.w3.org/2000/svg">
<path d="M254.82 643.996C250.59 644.996 246.2 646.186 242.89 649.556C239.58 652.926 237.82 659.166 240.13 663.596C242.41 667.976 247.29 668.726 251.53 669.046C288.97 671.836 327.2 674.526 363.4 662.526C369.23 660.596 375.04 658.246 380.21 654.416C381.83 653.216 383.45 651.756 384.16 649.616C385.35 645.996 383.37 641.756 380.59 639.836C377.81 637.926 374.48 637.746 371.29 637.626C332.05 636.076 293.63 634.906 254.82 644.006V643.996Z" fill="#F0EFEF" fill-opacity="0.25"/>
<path d="M220.19 301.096L249.89 435.416L301.92 614.536L316.83 620.996L362.22 430.566L383.65 302.966L299.15 314.886L220.19 301.096Z" fill="#CAD96C"/>
<path d="M190.02 211.596C181.92 237.906 185.08 265.726 209.06 284.226C235.78 304.846 272.9 306.386 306.3 307.556C334.05 305.306 381.95 306.336 406.12 280.776C426.73 258.976 431.46 227.536 421.31 200.756C410.18 171.376 385.36 149.636 355.3 135.856C325.97 122.406 287.55 110.726 277.58 78.5161C272.93 63.4761 278.4 45.5161 294.4 37.9761C296.65 36.9161 299.1 36.1861 301.62 35.7561C298.46 35.6161 295.28 35.7761 292.18 36.2461C278.37 38.3561 268.01 46.3761 260.18 56.5661C242.55 79.5361 240.46 108.456 229.16 133.896C217.42 160.326 198.51 183.976 190.01 211.596H190.02Z" fill="#FCDCDC"/>
<path d="M176.48 222.366C173.86 237.056 174.39 252.296 180.74 266.176C186.49 278.746 196.54 288.936 208.69 296.716C211.83 298.726 215.07 300.526 218.38 302.156C218.93 313.366 221.23 324.576 223.12 335.616C225.34 348.606 227.99 361.546 230.67 374.456C240.2 420.356 251.58 465.916 264.57 511.106C271.11 533.856 277.81 556.596 285.3 579.106C288.95 590.086 292.26 601.336 296.68 612.086C299.81 619.706 312.96 634.566 320.99 620.366C326.21 609.316 328.8 596.926 332.16 585.316C335.47 573.896 338.65 562.446 341.71 550.966C352.77 509.426 362.33 467.566 370.34 425.446C374.24 404.906 377.56 384.286 380.19 363.586C382.63 344.436 386.56 324.926 387.04 305.586C396.35 301.596 404.94 296.116 412.38 288.586C431.76 268.966 439.62 241.176 435.29 215.306C430.67 187.666 411.39 163.066 387.8 145.856C374.46 136.116 359.52 129.256 344.08 122.726C328.29 116.046 312.17 109.166 299.76 97.7461C287.43 86.3961 278.05 67.6361 286.79 52.0461C295.17 37.0861 317.49 36.0761 326.47 50.8861C327.41 52.4361 329.94 51.3461 329.51 49.7161C324.94 38.9461 308.39 29.0961 294.47 30.0661C279.44 31.1161 265.8 38.9961 256.15 49.3161C233.81 73.2161 232.14 107.046 218.25 134.796C203.77 163.736 182.17 190.336 176.46 222.366H176.48ZM345.54 351.926C343.28 350.296 341.06 348.616 338.92 346.846C332.97 341.926 327.48 336.526 322.63 330.696C320.41 328.026 318.32 325.266 316.36 322.426C315.03 320.496 313.98 318.386 312.44 316.636C312.64 316.396 312.85 316.156 313.05 315.906C336.18 316.076 360.65 315.306 381.9 307.616C381.88 307.726 381.86 307.826 381.84 307.936C381.81 307.976 381.78 308.006 381.76 308.036C371.27 323.816 359.16 338.546 345.56 351.906L345.54 351.926ZM308.49 320.936C310.85 325.916 315.51 330.746 318.83 334.646C323.67 340.346 329.04 345.656 334.91 350.496C337.08 352.286 339.34 354.006 341.64 355.676C330.63 366.066 318.68 375.556 305.87 384.006C303.42 381.756 301.01 379.456 298.67 377.106C289.52 367.946 281.32 358.036 274.16 347.546C275.27 346.846 276.39 346.146 277.49 345.426C284.56 340.776 291.33 335.756 297.74 330.376C301.29 327.396 305.09 324.286 308.5 320.916L308.49 320.936ZM294.6 326.276C288 331.706 281.06 336.786 273.81 341.476C272.95 342.036 272.07 342.566 271.2 343.116C265.11 333.676 259.85 323.796 255.5 313.566C271.55 316.286 288.19 317.026 304.39 317.506C301.14 320.456 297.98 323.506 294.61 326.286L294.6 326.276ZM325.09 406.406C329.48 409.466 333.98 412.396 338.61 415.146C331.65 420.116 324.42 424.816 316.65 429.026C309.37 432.966 301.86 436.566 294.15 439.776C292.91 438.726 291.68 437.666 290.46 436.596C281.55 428.796 273.13 420.516 265.22 411.866C279.21 406.026 292.7 399.056 305.44 391.066C311.67 396.506 318.23 401.636 325.09 406.416V406.406ZM372.01 367.096C367.38 364.316 361.94 362.286 357.35 359.616C354.98 358.236 352.67 356.776 350.39 355.276C361.74 343.806 371.77 331.306 380.11 317.886C379.24 323.566 378.49 329.256 377.59 334.936C375.88 345.676 374.06 356.406 372.01 367.106V367.096ZM366.94 393.256C359.07 399.496 351.35 405.756 343.34 411.696C338.85 409.046 334.45 406.276 330.18 403.346C323.22 398.576 316.58 393.426 310.28 387.946C323.32 379.356 335.52 369.706 346.55 359.076C348.91 360.626 351.31 362.136 353.78 363.526C358.94 366.426 365.01 370.046 371.19 371.396C369.77 378.686 368.35 385.976 366.94 393.266V393.256ZM361.39 421.566C357.53 419.076 353.1 417.116 349.03 414.946C354.92 410.536 360.49 405.786 365.5 400.676C364.14 407.636 362.78 414.606 361.39 421.566ZM353.53 459.956C348.34 463.626 343.4 467.646 338.09 471.146C332.51 467.776 327.01 464.316 321.64 460.676C313.75 455.326 306.14 449.636 298.82 443.646C306.2 440.476 313.41 436.966 320.4 433.126C328.45 428.696 336.58 423.806 344.28 418.396C349.26 421.176 354.78 424.546 360.49 426.066C358.23 437.376 355.93 448.666 353.52 459.956H353.53ZM349.63 477.726C347.7 476.536 345.69 475.426 343.69 474.326C346.5 472.406 349.21 470.376 351.74 468.256C351.05 471.416 350.34 474.566 349.64 477.726H349.63ZM340.89 514.526C331.86 519.656 323.29 525.226 313.67 529.506C306.91 524.176 300.89 517.736 295.3 512.066C291.82 508.536 288.45 504.906 285.17 501.216C287.74 500.376 290.2 499.506 292.44 498.796C301.16 496.026 309.68 492.666 317.86 488.766C324.58 485.566 331.78 481.856 338.62 477.616C341.79 479.506 345.04 481.416 348.46 482.876C347.64 486.486 346.81 490.096 345.95 493.706C344.31 500.656 342.61 507.596 340.88 514.526H340.89ZM334.37 539.946C328.81 538.786 323.72 536.396 318.99 533.326C326.32 529.956 333.21 525.966 339.21 521.256C337.63 527.496 336.02 533.716 334.38 539.946H334.37ZM316.82 581.536C315.51 580.716 314.23 579.866 312.96 579.006C317.49 577.316 321.78 575.166 325.46 572.516C324.33 576.526 323.18 580.526 322.02 584.536C320.27 583.526 318.48 582.576 316.82 581.536ZM296.43 583.036C300.03 582.586 303.77 581.836 307.45 580.806C311.48 583.876 316.04 587.056 320.69 589.016C318.23 597.076 315.18 605.236 313.43 613.446C312.99 615.536 310.09 616.276 308.54 614.686C305.48 611.536 304.09 605.466 303.11 602.626C300.84 596.116 298.61 589.586 296.42 583.046L296.43 583.036ZM291.2 567.216C294.65 570.556 298.35 573.686 302.08 576.606C299.66 577.156 297.21 577.576 294.72 577.886C293.54 574.336 292.37 570.776 291.19 567.216H291.2ZM283.74 544.596C293.57 542.566 303.84 539.636 313.58 535.676C319.64 540.226 326.29 543.846 333.12 544.576C332.14 548.256 331.16 551.946 330.16 555.626C329.39 558.436 328.6 561.246 327.82 564.056C323.03 567.216 318.53 570.636 313.09 573.016C311.26 573.816 309.39 574.506 307.51 575.116C306.65 574.466 305.8 573.816 304.96 573.156C298.51 568.066 293.14 562.326 287.66 556.486C286.94 554.326 286.23 552.156 285.51 549.996C284.91 548.196 284.34 546.396 283.75 544.596H283.74ZM271.37 504.336C274.17 504.156 277.1 503.556 280.01 502.766C284.82 508.296 289.88 513.666 295.19 518.846C298.87 522.436 303.44 527.186 308.59 531.636C300.05 535.026 291.17 537.626 282.08 539.506C278.33 527.836 274.77 516.106 271.37 504.346V504.336ZM265.99 485.146C269.1 489.436 272.36 493.626 275.76 497.736C273.79 498.126 271.77 498.466 269.86 499.026C268.55 494.406 267.26 489.776 265.99 485.146ZM258.6 457.246C269.02 455.216 279.45 451.306 289.1 447.616C290.45 447.096 291.79 446.576 293.13 446.036C301.09 452.596 309.38 458.816 317.98 464.666C322.91 468.016 327.95 471.256 333.09 474.336C327.5 477.756 321.71 480.896 315.76 483.766C307.75 487.626 299.44 490.936 290.88 493.656C287.63 494.686 284.34 495.606 281.03 496.466C274.43 488.686 268.27 480.586 262.52 472.276C261.19 467.276 259.88 462.266 258.6 457.246ZM249 418.076C252.6 416.836 256.16 415.486 259.7 414.096C268 423.316 276.9 432.086 286.36 440.326C287.04 440.916 287.75 441.496 288.44 442.076C287.13 442.586 285.81 443.076 284.49 443.566C275.54 446.836 266.3 448.996 257.18 451.646C254.88 442.526 252.63 433.406 250.45 424.276C249.96 422.206 249.48 420.146 249 418.076ZM243.9 395.746C247.72 400.586 251.85 405.256 255.84 409.776C253.17 410.806 250.47 411.806 247.75 412.756C246.44 407.096 245.16 401.426 243.9 395.746ZM237.67 366.616C243.54 364.886 249.57 361.176 254.33 358.786C259.46 356.216 264.46 353.436 269.35 350.506C276.39 360.806 284.39 370.566 293.3 379.656C295.8 382.206 298.38 384.696 301.01 387.126C288.55 394.966 275.31 401.836 261.34 407.586C253.97 399.056 247.75 389.846 240.71 381.156C239.68 376.316 238.65 371.466 237.66 366.616H237.67ZM225.36 305.316C232.89 308.386 240.76 310.646 248.81 312.326C253.57 324.046 259.46 335.326 266.39 346.056C261.51 348.956 256.52 351.696 251.41 354.236C247.98 355.946 244.49 357.566 240.96 359.106C239.51 359.736 237.99 360.306 236.49 360.916C236.44 360.666 236.39 360.416 236.34 360.166C234.22 349.626 232.19 339.056 230.11 328.506C228.59 320.786 227.28 312.976 225.36 305.316ZM189.99 211.496C198.49 183.846 217.4 160.166 229.14 133.706C240.44 108.246 242.53 79.2861 260.16 56.2961C267.99 46.0861 278.34 38.0661 292.16 35.9461C295.26 35.4661 298.44 35.3061 301.6 35.4561C299.08 35.8761 296.64 36.6061 294.38 37.6761C278.38 45.2261 272.9 63.2061 277.56 78.2661C287.52 110.516 325.94 122.206 355.28 135.676C385.34 149.476 410.16 171.236 421.29 200.656C431.44 227.466 426.71 258.946 406.1 280.766C381.93 306.356 334.03 305.326 306.28 307.576C272.88 306.406 235.76 304.866 209.04 284.216C185.06 265.696 181.9 237.836 190 211.506L189.99 211.496Z" fill="#454545"/>
<path d="M300.48 154.046C291.6 153.516 257.71 151.516 231.48 176.046C227.13 180.116 200.62 204.916 206.48 237.046C212.19 268.306 244.13 282.366 252.48 286.046C274.87 295.906 294.07 292.946 332.48 287.046C365.42 281.986 383.42 278.936 392.48 264.046C402.1 248.236 395.87 228.586 393.48 221.046C381.7 183.896 341.43 156.466 300.48 154.046Z" fill="#FDEAEA"/>
<path d="M363.64 225.056C374.13 226.566 372.72 243.156 362.16 243.156C351.6 243.156 350.19 226.566 360.68 225.056C363.67 224.626 366.62 225.796 367.51 228.936C368.26 231.536 366.6 235.346 363.63 235.766C364.6 234.586 364.6 233.416 363.63 232.236C362.65 232.236 361.66 232.236 360.68 232.236C359.71 233.416 359.71 234.586 360.68 235.766C357.72 235.336 356.06 231.566 356.8 228.936C357.69 225.746 360.64 224.626 363.63 225.056H363.64Z" fill="#3B3328"/>
<path d="M248.09 225.056C258.58 226.566 257.17 243.156 246.61 243.156C236.05 243.156 234.64 226.566 245.13 225.056C248.12 224.626 251.06 225.796 251.96 228.936C252.7 231.536 251.05 235.346 248.08 235.766C249.05 234.586 249.05 233.416 248.08 232.236C247.1 232.236 246.11 232.236 245.13 232.236C244.16 233.416 244.16 234.586 245.13 235.766C242.17 235.336 240.51 231.566 241.25 228.936C242.14 225.746 245.09 224.626 248.08 225.056H248.09Z" fill="#3B3328"/>
<path d="M334.99 264.626C317.48 279.146 285 280.626 269.97 261.606C267.05 257.906 272.25 252.626 275.21 256.366C287.56 271.996 315.08 271.556 329.75 259.386C333.39 256.366 338.66 261.576 334.99 264.626Z" fill="#3B3328"/>
</svg>
