<svg width="224" height="23" viewBox="0 0 224 23" fill="none" xmlns="http://www.w3.org/2000/svg">
<path d="M6.46276 21.6341C5.16322 21.6341 4.02274 21.3936 3.03742 20.9087C2.0715 20.4083 1.31893 19.71 0.77972 18.8178C0.259907 17.9062 0 16.8394 0 15.6136V6.75737C0 5.51215 0.259907 4.44536 0.77972 3.55315C1.31893 2.66093 2.0715 1.97431 3.03742 1.49329C4.02274 0.992872 5.16322 0.740723 6.46276 0.740723C7.76229 0.740723 8.91441 0.992872 9.86094 1.49329C10.8269 1.97431 11.5794 2.66481 12.1186 3.55315C12.6578 4.44536 12.9255 5.51215 12.9255 6.75737H9.41483C9.41483 5.79145 9.15492 5.05829 8.63511 4.55787C8.13469 4.05745 7.40928 3.8053 6.46276 3.8053C5.51623 3.8053 4.78306 4.05745 4.26325 4.55787C3.74343 5.05829 3.48353 5.78369 3.48353 6.73022V15.6136C3.48353 16.5601 3.74343 17.2933 4.26325 17.8131C4.78306 18.3329 5.51623 18.5928 6.46276 18.5928C7.40928 18.5928 8.13469 18.3329 8.63511 17.8131C9.15492 17.2933 9.41483 16.5601 9.41483 15.6136V13.5537H5.96234V10.5474H12.9255V15.6175C12.9255 16.8433 12.6578 17.9101 12.1186 18.8217C11.5794 19.7139 10.8269 20.4083 9.86094 20.9126C8.91441 21.3936 7.78169 21.638 6.46276 21.638V21.6341Z" fill="#645F53"/>
<path d="M23.0502 21.6341C21.0641 21.6341 19.5046 21.0949 18.3719 20.0204C17.2586 18.9264 16.7 17.4407 16.7 15.5632V1.02393H20.2106V15.536C20.2106 16.5019 20.4511 17.2545 20.936 17.7937C21.4171 18.3329 22.1231 18.6006 23.0541 18.6006C23.9851 18.6006 24.6601 18.3329 25.145 17.7937C25.6454 17.2545 25.8975 16.5019 25.8975 15.536V1.02393H29.4082V15.5632C29.4082 17.4368 28.8496 18.9226 27.7363 20.0204C26.623 21.0988 25.0635 21.6341 23.058 21.6341H23.0502Z" fill="#645F53"/>
<path d="M32.3721 21.3548L37.4965 1.02002H41.9809L47.1324 21.3548H43.5675L42.4541 16.4243H37.0504L35.9371 21.3548H32.3721ZM37.6905 13.5847H41.8141L40.5882 8.12673C40.3826 7.21511 40.2081 6.40048 40.0607 5.67507C39.9132 4.93414 39.8085 4.39491 39.7542 4.0613C39.6999 4.39491 39.5952 4.93414 39.4477 5.67507C39.3158 6.40048 39.1413 7.20735 38.9202 8.09957L37.6943 13.5886L37.6905 13.5847Z" fill="#645F53"/>
<path d="M54.1965 21.3548L49.072 1.02002H52.6913L55.7559 14.2791C55.9227 14.9308 56.0817 15.6252 56.2292 16.37C56.3766 17.111 56.4891 17.7161 56.5628 18.1816C56.6365 17.7161 56.7373 17.1148 56.8692 16.37C57.0011 15.6291 57.1369 14.9231 57.2882 14.252L60.3256 1.02002H63.8363L58.7118 21.3548H54.2003H54.1965Z" fill="#645F53"/>
<path d="M65.7759 21.3548L70.9003 1.02002H75.3847L80.5363 21.3548H76.9713L75.8579 16.4243H70.4542L69.3409 21.3548H65.7759ZM71.0943 13.5847H75.2179L73.992 8.12673C73.7864 7.21511 73.6119 6.40048 73.4645 5.67507C73.3171 4.93414 73.2123 4.39491 73.158 4.0613C73.1037 4.39491 72.999 4.93414 72.8516 5.67507C72.7197 6.40048 72.5451 7.20735 72.324 8.09957L71.0981 13.5886L71.0943 13.5847Z" fill="#645F53"/>
<path d="M88.9192 21.3548V19.3493H93.1242V3.02556H88.9192V1.02002H99.5598V3.02556H95.3819V19.3493H99.5598V21.3548H88.9192Z" fill="#645F53"/>
<path d="M111.077 21.6341C109.871 21.6341 108.82 21.4013 107.931 20.9358C107.058 20.4703 106.38 19.8031 105.899 18.9303C105.417 18.0575 105.173 17.0372 105.173 15.8657V6.50519C105.173 5.31816 105.414 4.29406 105.899 3.44063C106.38 2.56781 107.058 1.9006 107.931 1.43509C108.823 0.969588 109.871 0.736816 111.077 0.736816C112.284 0.736816 113.296 0.977325 114.169 1.46223C115.061 1.92773 115.748 2.59497 116.229 3.46779C116.71 4.34061 116.954 5.38023 116.954 6.58666H114.755C114.755 5.36084 114.429 4.41431 113.781 3.74708C113.129 3.06046 112.229 2.71523 111.081 2.71523C109.933 2.71523 109.021 3.04884 108.35 3.71607C107.698 4.36777 107.376 5.2949 107.376 6.50133V15.8619C107.376 17.0489 107.702 17.9799 108.35 18.6471C109.017 19.3143 109.929 19.6479 111.081 19.6479C112.233 19.6479 113.133 19.3143 113.781 18.6471C114.433 17.9605 114.755 17.0023 114.755 15.7765H116.954C116.954 16.9635 116.714 18.0032 116.229 18.8954C115.748 19.7682 115.057 20.4471 114.169 20.9281C113.296 21.3936 112.264 21.6263 111.077 21.6263V21.6341Z" fill="#645F53"/>
<path d="M122.21 21.3548V1.02002H133.685V3.02556H124.41V9.73658H132.711V11.715H124.41V19.3454H133.685V21.3509H122.21V21.3548Z" fill="#645F53"/>
<path d="M148.267 21.6341C147.061 21.6341 146.009 21.4013 145.121 20.9358C144.248 20.4703 143.569 19.8031 143.088 18.9303C142.607 18.0575 142.363 17.0372 142.363 15.8657V6.50519C142.363 5.31816 142.604 4.29406 143.088 3.44063C143.569 2.56781 144.248 1.9006 145.121 1.43509C146.013 0.969588 147.061 0.736816 148.267 0.736816C149.474 0.736816 150.486 0.977325 151.359 1.46223C152.251 1.92773 152.938 2.59497 153.419 3.46779C153.9 4.34061 154.144 5.38023 154.144 6.58666H151.945C151.945 5.36084 151.619 4.41431 150.971 3.74708C150.319 3.06046 149.419 2.71523 148.271 2.71523C147.123 2.71523 146.211 3.04884 145.54 3.71607C144.888 4.36777 144.566 5.2949 144.566 6.50133V15.8619C144.566 17.0489 144.892 17.9799 145.54 18.6471C146.207 19.3143 147.119 19.6479 148.271 19.6479C149.423 19.6479 150.323 19.3143 150.971 18.6471C151.623 17.9605 151.945 17.0023 151.945 15.7765H154.144C154.144 16.9635 153.904 18.0032 153.419 18.8954C152.938 19.7682 152.247 20.4471 151.359 20.9281C150.486 21.3936 149.454 21.6263 148.267 21.6263V21.6341Z" fill="#645F53"/>
<path d="M159.175 21.3548V1.02002H165.304C166.511 1.02002 167.562 1.26053 168.45 1.74543C169.362 2.22645 170.056 2.90531 170.541 3.77813C171.042 4.63155 171.294 5.64403 171.294 6.81555C171.294 8.20819 170.922 9.39523 170.181 10.3805C169.44 11.3659 168.427 12.0253 167.143 12.3589L171.542 21.3548H168.924L164.858 12.58H161.375V21.3548H159.175ZM161.375 10.5745H165.301C166.433 10.5745 167.333 10.2292 168 9.54262C168.687 8.856 169.032 7.93664 169.032 6.78451C169.032 5.63239 168.687 4.72466 168 4.05356C167.333 3.36694 166.433 3.02168 165.301 3.02168H161.375V10.5706V10.5745Z" fill="#645F53"/>
<path d="M176.1 21.3548V1.02002H187.575V3.02556H178.3V9.73658H186.601V11.715H178.3V19.3454H187.575V21.3509H176.1V21.3548Z" fill="#645F53"/>
<path d="M191.408 21.3548L196.784 1.02002H199.709L205.059 21.3548H202.832L201.412 15.8386H195.062L193.669 21.3548H191.412H191.408ZM195.5 13.9455H200.931L199.205 7.14916C198.926 6.01643 198.704 5.0699 198.538 4.30958C198.371 3.52986 198.27 3.02944 198.231 2.80444C198.192 3.02556 198.092 3.52986 197.925 4.30958C197.758 5.0699 197.533 6.01643 197.258 7.14916L195.504 13.9455H195.5Z" fill="#645F53"/>
<path d="M208.806 21.3548V1.02002H211.785L214.097 7.92888C214.284 8.46809 214.458 9.01506 214.625 9.57366C214.792 10.1323 214.912 10.5667 214.986 10.881C215.079 10.5667 215.199 10.1284 215.346 9.57366C215.513 9.01506 215.692 8.46033 215.874 7.90173L218.073 1.02002H221.053V21.3548H218.88V12.6654C218.88 11.8857 218.9 11.0206 218.935 10.0741C218.989 9.10815 219.055 8.14224 219.129 7.17632C219.202 6.21039 219.276 5.29103 219.35 4.41821C219.423 3.52599 219.489 2.76566 219.544 2.13335L216.118 12.4094H213.779L210.327 2.13335C210.4 2.76566 210.474 3.50658 210.548 4.36001C210.622 5.19404 210.687 6.0979 210.742 7.05994C210.796 8.00647 210.843 8.96462 210.881 9.93054C210.936 10.8965 210.967 11.8042 210.967 12.6615V21.3509H208.794L208.806 21.3548Z" fill="#645F53"/>
</svg>
