<svg width="22" height="22" viewBox="0 0 22 22" fill="none" xmlns="http://www.w3.org/2000/svg">
<path fill-rule="evenodd" clip-rule="evenodd" d="M16.0392 14.6244C17.2714 13.084 18.0082 11.1301 18.0082 9.0041C18.0082 4.03127 13.9769 0 9.0041 0C4.03127 0 0 4.03127 0 9.0041C0 13.9769 4.03127 18.0082 9.0041 18.0082C11.1301 18.0082 13.084 17.2714 14.6244 16.0392L20.2921 21.707C20.6828 22.0977 21.3163 22.0977 21.707 21.707C22.0977 21.3163 22.0977 20.6828 21.707 20.2921L16.0392 14.6244ZM9.0041 16.0173C5.1308 16.0173 1.99087 12.8774 1.99087 9.0041C1.99087 5.1308 5.1308 1.99087 9.0041 1.99087C12.8774 1.99087 16.0173 5.1308 16.0173 9.0041C16.0173 12.8774 12.8774 16.0173 9.0041 16.0173Z" fill="#545454"/>
</svg>
